<svg xmlns="http://www.w3.org/2000/svg" xmlns:xlink="http://www.w3.org/1999/xlink" width="298.492" height="40.142" viewBox="0 0 149.246 20.071"><defs><style>.a{fill:none;}.b{fill:#fff;}.c{clip-path:url(#a);}.d{fill:url(#b);}.e{clip-path:url(#c);}.f{clip-path:url(#e);}</style><clipPath id="a"><path class="a" d="M1981.674,1489.689a5.167,5.167,0,1,1-3.654,1.513,5.133,5.133,0,0,1,3.654-1.513m0-1.292a6.459,6.459,0,1,0,6.459,6.459,6.459,6.459,0,0,0-6.459-6.459Z" transform="translate(-1975.215 -1488.397)"/></clipPath><linearGradient id="b" x1="0.146" y1="0.854" x2="0.854" y2="0.146" gradientUnits="objectBoundingBox"><stop offset="0" stop-color="#6c9"/><stop offset="1" stop-color="#3cf"/></linearGradient><clipPath id="c"><path class="a" d="M1984.5,1493.225a4.575,4.575,0,0,0-4.456,4.57,4.514,4.514,0,0,0,1.959,3.676.2.2,0,0,0,.312-.195l-.536-3.677a.484.484,0,0,1,.655-.521l1.987.622a.489.489,0,0,0,.29,0l1.987-.622a.485.485,0,0,1,.655.521l-.537,3.677a.2.2,0,0,0,.312.2,4.521,4.521,0,0,0-2.626-8.246Z" transform="translate(-1980.042 -1493.225)"/></clipPath><clipPath id="e"><path class="a" d="M1989.785,1508.719a.484.484,0,0,0-.685,0,.969.969,0,1,1,0-1.368h0a.484.484,0,0,0,.685-.685,1.938,1.938,0,1,0,0,2.74h0A.484.484,0,0,0,1989.785,1508.719Z" transform="translate(-1986.478 -1506.097)"/></clipPath></defs><g transform="translate(-1638.821 -1473.806)"><g transform="translate(1767.996 1473.806)"><path class="b" d="M1968.422,1481.605a7.756,7.756,0,0,1,8.312-1.739l-2.365-2.365a7.107,7.107,0,0,0-10.051,10.05l2.365,2.365A7.756,7.756,0,0,1,1968.422,1481.605Z" transform="translate(-1961.59 -1474.772)"/><circle class="b" cx="7.105" cy="7.105" r="7.105" transform="translate(5.214 5.214)"/><g transform="translate(5.857 5.857)"><g class="c"><circle class="d" cx="6.458" cy="6.458" r="6.458" transform="translate(0.003 0.003)"/></g><g transform="translate(1.938 1.938)"><g class="e"><circle class="d" cx="6.458" cy="6.458" r="6.458" transform="translate(-1.935 -1.934)"/></g></g><g transform="translate(4.521 7.105)"><g class="f"><circle class="d" cx="6.458" cy="6.458" r="6.458" transform="translate(-4.518 -7.102)"/></g></g></g><path d="M1978.423,1480.639h0l-4.561-4.561a7.755,7.755,0,0,0-10.967,10.967l4.561,4.561a7.754,7.754,0,0,0,10.967-10.966Zm-15.07-4.1a7.107,7.107,0,0,1,10.051,0l2.364,2.364a7.758,7.758,0,0,0-10.05,10.051l-2.364-2.364A7.106,7.106,0,0,1,1963.353,1476.536Zm14.612,14.612a7.107,7.107,0,0,1-10.051,0h0a7.107,7.107,0,0,1,10.051-10.05h0A7.107,7.107,0,0,1,1977.965,1491.147Z" transform="translate(-1960.623 -1473.806)"/></g><g transform="translate(1638.821 1482.849)"><path d="M1638.821,1504.314a2.113,2.113,0,0,1,2.208-2.4,2.053,2.053,0,0,1,1.824.949,2.028,2.028,0,0,1,1.823-.949,2.114,2.114,0,0,1,2.208,2.4v3.007h-1.269v-3.007c0-.864-.448-1.216-1.067-1.216s-1.056.362-1.056,1.216v3.007h-1.269v-3.007c0-.854-.458-1.216-1.066-1.216s-1.067.352-1.067,1.216v3.007h-1.269Z" transform="translate(-1638.821 -1499.675)"/><path d="M1660.981,1504.74a2.71,2.71,0,0,1,2.848-2.826,2.667,2.667,0,0,1,2.8,2.815v2.592h-1.162v-1.034a1.914,1.914,0,0,1-1.867,1.173A2.588,2.588,0,0,1,1660.981,1504.74Zm4.383-.053a1.552,1.552,0,1,0-1.547,1.589A1.5,1.5,0,0,0,1665.364,1504.687Z" transform="translate(-1652.086 -1499.675)"/><path d="M1677.136,1501.405a2.589,2.589,0,0,1,2.624-2.719,2,2,0,0,1,1.76.906v-3.071h1.269v4.895a2.662,2.662,0,0,1-2.8,2.816A2.71,2.71,0,0,1,1677.136,1501.405Zm4.383.053a1.552,1.552,0,1,0-1.547,1.589A1.5,1.5,0,0,0,1681.519,1501.459Z" transform="translate(-1661.756 -1496.446)"/><path d="M1693.291,1504.687a2.827,2.827,0,0,1,5.652,0v.448h-4.319a1.444,1.444,0,0,0,1.5,1.173,1.479,1.479,0,0,0,1.248-.5h1.354a2.67,2.67,0,0,1-2.6,1.653A2.706,2.706,0,0,1,1693.291,1504.687Zm4.309-.565a1.554,1.554,0,0,0-2.944,0Z" transform="translate(-1671.426 -1499.675)"/><path d="M1716.514,1501.416v-4.895h1.269v3.071a2,2,0,0,1,1.76-.906,2.588,2.588,0,0,1,2.623,2.719,2.709,2.709,0,0,1-2.847,2.826A2.662,2.662,0,0,1,1716.514,1501.416Zm4.372.043a1.552,1.552,0,1,0-1.557,1.589A1.5,1.5,0,0,0,1720.887,1501.459Z" transform="translate(-1685.327 -1496.446)"/><path d="M1732.712,1508.1h1.269a1.226,1.226,0,0,0,1.269.715c.863,0,1.354-.416,1.354-1.44v-.661a1.706,1.706,0,0,1-1.568.885,2.35,2.35,0,0,1-2.368-2.666v-2.677h1.269v2.677c0,1,.533,1.482,1.333,1.482a1.3,1.3,0,0,0,1.333-1.482v-2.677h1.269v5.087a2.649,2.649,0,0,1-5.162.757Z" transform="translate(-1694.997 -1499.882)"/><path d="M1755.813,1500.287a2.325,2.325,0,0,1,2.431-2.624,2.378,2.378,0,0,0,3.967,0,2.325,2.325,0,0,1,2.431,2.624v4.49h-1.365v-4.49c0-.96-.512-1.354-1.184-1.354s-1.184.405-1.184,1.354v4.49h-1.365v-4.49c0-.949-.512-1.354-1.184-1.354s-1.184.395-1.184,1.354v4.49h-1.365Z" transform="translate(-1708.851 -1497.13)"/><path d="M1780.443,1497.188a.843.843,0,1,1,1.685,0,.843.843,0,0,1-1.685,0Zm.2,1.525h1.269v5.268h-1.269Z" transform="translate(-1723.594 -1496.335)"/><path d="M1786.816,1507.9h1.28a1.383,1.383,0,0,0,1.4.715c.938,0,1.525-.437,1.525-1.664v-.458a1.99,1.99,0,0,1-1.781.906,2.537,2.537,0,0,1-2.6-2.709,2.706,2.706,0,0,1,2.836-2.773,2.665,2.665,0,0,1,2.816,2.815v2.176a2.542,2.542,0,0,1-2.794,2.8A2.5,2.5,0,0,1,1786.816,1507.9Zm4.2-3.21a1.552,1.552,0,1,0-3.1,0,1.552,1.552,0,0,0,3.1,0Z" transform="translate(-1727.301 -1499.675)"/><path d="M1803.321,1505v-2.74h1.269V1505c0,1,.533,1.482,1.333,1.482s1.333-.48,1.333-1.482v-2.74h1.269V1505a2.6,2.6,0,1,1-5.2,0Z" transform="translate(-1737.289 -1499.882)"/><path d="M1818.36,1504.687a2.827,2.827,0,0,1,5.652,0v.448h-4.319a1.443,1.443,0,0,0,1.5,1.173,1.479,1.479,0,0,0,1.248-.5h1.354a2.67,2.67,0,0,1-2.6,1.653A2.706,2.706,0,0,1,1818.36,1504.687Zm4.308-.565a1.554,1.554,0,0,0-2.943,0Z" transform="translate(-1746.291 -1499.675)"/><path d="M1834.967,1496.521h1.269v7.572h-1.269Z" transform="translate(-1756.232 -1496.446)"/><path d="M1847.854,1501.289a3.731,3.731,0,0,1,7.3-.96h-1.439a2.218,2.218,0,0,0-2.154-1.4,2.362,2.362,0,1,0,2.154,3.317h1.439a3.731,3.731,0,0,1-7.3-.959Z" transform="translate(-1763.946 -1497.13)"/><path d="M1867.676,1504.74a2.71,2.71,0,0,1,2.847-2.826,2.667,2.667,0,0,1,2.8,2.815v2.592h-1.162v-1.034a1.913,1.913,0,0,1-1.866,1.173A2.588,2.588,0,0,1,1867.676,1504.74Zm4.383-.053a1.552,1.552,0,1,0-1.546,1.589A1.5,1.5,0,0,0,1872.059,1504.687Z" transform="translate(-1775.811 -1499.675)"/><path d="M1884.362,1504.26a2.309,2.309,0,1,1,4.618.021v.032h-1.258v-.053c0-.853-.427-1.162-1.045-1.162s-1.045.309-1.045,1.162v3.061h-1.269Z" transform="translate(-1785.799 -1499.675)"/><path d="M1897.036,1501.405a2.588,2.588,0,0,1,2.624-2.719,2,2,0,0,1,1.76.906v-3.071h1.269v4.895a2.661,2.661,0,0,1-2.8,2.816A2.71,2.71,0,0,1,1897.036,1501.405Zm4.383.053a1.552,1.552,0,1,0-1.547,1.589A1.5,1.5,0,0,0,1901.419,1501.459Z" transform="translate(-1793.386 -1496.446)"/><path d="M1913.191,1504.687a2.837,2.837,0,1,1,2.837,2.772A2.706,2.706,0,0,1,1913.191,1504.687Zm4.383,0a1.552,1.552,0,1,0-1.547,1.589A1.5,1.5,0,0,0,1917.574,1504.687Z" transform="translate(-1803.056 -1499.675)"/><path d="M1928.9,1505.764h1.28c.011.352.32.586.938.586.65,0,.928-.266.928-.586,0-.405-.469-.459-1.035-.533-.81-.107-2-.245-2-1.536,0-1.077.821-1.781,2.09-1.781,1.29,0,2.079.725,2.111,1.653h-1.258c-.032-.32-.33-.544-.832-.544-.554,0-.832.266-.832.576,0,.405.48.469,1.045.544.7.1,1.994.234,1.994,1.546,0,1.067-.864,1.77-2.207,1.77S1928.927,1506.745,1928.9,1505.764Z" transform="translate(-1812.456 -1499.675)"/><path d="M1941.489,1504.687a2.838,2.838,0,1,1,2.837,2.772A2.706,2.706,0,0,1,1941.489,1504.687Zm4.383,0a1.552,1.552,0,1,0-1.547,1.589A1.5,1.5,0,0,0,1945.872,1504.687Z" transform="translate(-1819.995 -1499.675)"/></g></g></svg>