<svg xmlns="http://www.w3.org/2000/svg" width="122.724" height="87.122" viewBox="0 0 122.724 87.122"><defs><style>.a,.b,.c{fill:#bf9a78;}.a{fill-rule:evenodd;}.c{font-size:10px;font-family:-apple-system, BlinkMacSystemFont, Segoe UI, Helvetica, Arial, sans-serif, Apple Color Emoji, Segoe UI Emoji;font-weight:700;letter-spacing:-0.032em;}</style></defs><g transform="matrix(0.985, 0.174, -0.174, 0.985, 12106.722, -14631.89)"><g transform="translate(-10678.082 16098.594)"><path class="a" d="M1612.861,425.17c.081.368.405.516.3,1.057a1.315,1.315,0,0,1-1.231.286C1611.409,425.93,1611.668,424.85,1612.861,425.17Z" transform="translate(-208.883 -9.532)"/><path class="a" d="M1577.635,425.605c-.158.07-.318.137-.363.329q-1.551.08-1.318-1.455C1576.84,424.038,1577.774,424.089,1577.635,425.605Z" transform="translate(-184.306 -8.931)"/><path class="a" d="M1586.516,424.891c.072.627-.243.828-.407,1.2-.777.151-.848-.337-1.369-.415A1,1,0,0,1,1586.516,424.891Z" transform="translate(-190.362 -9.119)"/><path class="a" d="M1595.357,424.873a6.446,6.446,0,0,1,.286,1.23c-.382.127-.613.419-1.23.286C1593.735,425.829,1593.935,424.524,1595.357,424.873Z" transform="translate(-196.759 -9.327)"/><path class="a" d="M1604.426,425.74c-.188.218-.2.63-.39.849a1.473,1.473,0,0,1-1.031-.225C1602.743,425.211,1604.023,425.117,1604.426,425.74Z" transform="translate(-202.899 -9.701)"/><path class="a" d="M1568.652,424.122c.143.311.016.867.3,1.057-.074.575-1.166.631-1.577.269A1,1,0,0,1,1568.652,424.122Z" transform="translate(-178.382 -8.815)"/><path class="a" d="M1551.2,425.519c-.158.07-.318.137-.364.33C1547.813,425.668,1551.285,422.472,1551.2,425.519Z" transform="translate(-166.208 -8.911)"/><path class="a" d="M1559.953,424.622c.049.664-.127,1.078-.58,1.188C1557.6,425.743,1558.792,423.3,1559.953,424.622Z" transform="translate(-172.308 -8.925)"/><path class="a" d="M1542.377,424.9c.043.657-.405.771-.745,1.005-.433.006-.523-.3-.849-.389C1540.542,424.032,1542.1,423.91,1542.377,424.9Z" transform="translate(-160.131 -8.945)"/><path class="a" d="M1533.268,425.847c-.5-.045-1.139.039-1.378-.242C1531.6,423.546,1534.344,424.279,1533.268,425.847Z" transform="translate(-154.02 -9.002)"/><path class="a" d="M1524.964,424.332c.1.875.066,1.045-.589,1.361C1522.8,425.621,1523.513,423.359,1524.964,424.332Z" transform="translate(-148.255 -8.829)"/><path class="a" d="M1516.251,424.408c.271.594-.2.839-.415,1.37C1513.75,426.005,1514.6,423.285,1516.251,424.408Z" transform="translate(-142.15 -8.86)"/><path class="a" d="M1507.516,425.276c-.069.594-.553.729-1.083.815C1505.1,425.23,1507.078,423.691,1507.516,425.276Z" transform="translate(-136.222 -9.172)"/><path class="a" d="M1498.429,424.946c.081.76-.359.944-.753,1.179-.54.1-.31-.493-.849-.389A.9.9,0,0,1,1498.429,424.946Z" transform="translate(-129.9 -9.153)"/><path class="a" d="M1489.8,424.657c.354.49.253.859-.069,1.386l-.866-.043C1488.593,425.352,1488.79,424.416,1489.8,424.657Z" transform="translate(-124.38 -9.193)"/><path class="a" d="M1480.816,424.8c.184.488.34.743.113,1.222a1.312,1.312,0,0,1-1.2-.407C1479.928,425.158,1480.071,424.646,1480.816,424.8Z" transform="translate(-118.179 -9.297)"/><path class="a" d="M1472.756,425.514a.938.938,0,0,1-1.083.815C1470.6,425.535,1472.408,424.214,1472.756,425.514Z" transform="translate(-112.407 -9.432)"/><path class="a" d="M1463.416,425.005l.693.034c.058.334.352.453.3.884-.231.05-.288.292-.537.321C1463.191,426.169,1463.167,425.5,1463.416,425.005Z" transform="translate(-106.863 -9.458)"/><path class="a" d="M1446.308,424.76c.6-.027.589.937.287,1.231a1.127,1.127,0,0,1-.858-.216C1445.594,425.068,1446.045,425.018,1446.308,424.76Z" transform="translate(-94.79 -9.289)"/><path class="a" d="M1454.389,425.119l.693.034c.356.39.041.973-.234,1.2l-.347-.017C1454.252,426.083,1454,425.472,1454.389,425.119Z" transform="translate(-100.617 -9.537)"/><path class="a" d="M1438.121,425.4c.05.421-.335.361-.216.858a1.469,1.469,0,0,1-1.031-.225C1436.755,424.961,1437.625,424.879,1438.121,425.4Z" transform="translate(-88.708 -9.517)"/><path class="a" d="M1420.359,424.91c-.024.46.017.993-.233,1.2a1.477,1.477,0,0,1-1.032-.225C1419.057,424.978,1419.688,424.522,1420.359,424.91Z" transform="translate(-76.491 -9.298)"/><path class="a" d="M1429.228,425.733l-.034.693a1.472,1.472,0,0,1-1.048.122c.092-.414-.3-.393-.13-.875A1.085,1.085,0,0,1,1429.228,425.733Z" transform="translate(-82.596 -9.809)"/><path class="a" d="M1401.987,426.517a1.164,1.164,0,0,1-1.187-.58C1401.285,424.615,1403,425.426,1401.987,426.517Z" transform="translate(-63.916 -9.628)"/><path class="a" d="M1411.265,425.3a1.088,1.088,0,0,1-.06,1.214c-.536.1-.623-.209-1.031-.225C1410.08,425.455,1410.586,425.283,1411.265,425.3Z" transform="translate(-70.353 -9.661)"/><path class="a" d="M1394.1,426.342a.853.853,0,0,1-1.213-.06C1392.606,424.763,1394.58,424.821,1394.1,426.342Z" transform="translate(-58.46 -9.573)"/><path class="a" d="M1385.386,425.815c.1.536-.209.623-.225,1.031-1,.18-.944-.689-1-.918A.861.861,0,0,1,1385.386,425.815Z" transform="translate(-52.48 -9.877)"/><path class="a" d="M1376.429,426.13l-.043.867c-.638.3-.632-.1-1.2-.233A.833.833,0,0,1,1376.429,426.13Z" transform="translate(-46.305 -10.156)"/><path class="a" d="M1367.764,425.877c.363.531.353.721-.06,1.214-.548.055-.7-.252-.841-.563C1366.92,426.041,1367.2,425.8,1367.764,425.877Z" transform="translate(-40.586 -10.049)"/><path class="a" d="M1359.181,425.933a1.084,1.084,0,0,1-.06,1.213C1357.827,427.351,1357.867,425.554,1359.181,425.933Z" transform="translate(-34.612 -10.06)"/><path class="a" d="M1651.242,445.418a.829.829,0,0,1,1.014.571c-.009.6-.39.789-1.074.642A1.086,1.086,0,0,1,1651.242,445.418Z" transform="translate(-235.935 -23.485)"/><path class="a" d="M1606.568,448.507c-.387.3-1.275.054-1.915.079.413-.869-.169-.959-.261-1.75A1.714,1.714,0,0,1,1606.568,448.507Z" transform="translate(-203.877 -24.42)"/><path class="a" d="M1652.052,454.425c.235.118-.007.668.312.71-.287.565-.8.475-1.222.113Q1651.129,454.319,1652.052,454.425Z" transform="translate(-236.016 -29.676)"/><path class="a" d="M1318.84,445.115c1.435,1.046-1.579,1.139,0,0Z" transform="translate(-7.248 -23.283)"/><path class="a" d="M1652.531,462.934c.083,1.109-.661,1.077-1.247.633l.034-.693C1651.663,462.547,1652.141,462.831,1652.531,462.934Z" transform="translate(-236.113 -35.386)"/><path class="a" d="M1318.815,453.9c.655-.152.542.393.841.563a.761.761,0,0,1-.71.312A1.127,1.127,0,0,1,1318.815,453.9Z" transform="translate(-7.534 -29.304)"/><path class="a" d="M1652.527,471.109c.1.536-.208.623-.224,1.032-.56.121-.522-.3-.85-.39C1651.5,471.2,1651.884,471.007,1652.527,471.109Z" transform="translate(-236.229 -41.135)"/><path class="a" d="M1318.951,462.3l.694.034-.043.867C1318.955,463.293,1318.85,462.892,1318.951,462.3Z" transform="translate(-7.626 -35.099)"/><path class="a" d="M1651.723,479.367c.71-.037,1.085.232,1,.918-.488.184-.743.34-1.222.113C1651.4,479.863,1651.707,479.775,1651.723,479.367Z" transform="translate(-236.247 -46.827)"/><path class="a" d="M1652.935,487.468c.073.567-.158.8-.233,1.2l-.866-.043C1651.326,487.759,1652.03,486.883,1652.935,487.468Z" transform="translate(-236.375 -52.269)"/><path class="a" d="M1319.447,471.231a.652.652,0,0,1,.659.728.973.973,0,0,1-.7.139A1.077,1.077,0,0,1,1319.447,471.231Z" transform="translate(-7.912 -41.237)"/><path class="a" d="M1319.491,479.6a.83.83,0,0,1,.468,1.066c-.31-.037-.376.194-.7.139.5-.161.192-1.1.017-.347C1318.76,480.223,1319.43,479.806,1319.491,479.6Z" transform="translate(-7.739 -46.992)"/><path class="a" d="M1652.65,497.445c-.235.227-.762.134-1.221.113.112-.543-.282-.627-.113-1.222C1652.184,496.066,1652.9,496.284,1652.65,497.445Z" transform="translate(-236.106 -58.424)"/><path class="a" d="M1319.495,488.472c.459-.029.557.268.485.719l-.693-.034C1319.28,488.844,1319.517,488.8,1319.495,488.472Z" transform="translate(-7.879 -53.088)"/><path class="a" d="M1652.69,505.747a3.559,3.559,0,0,1-.571,1.015,1.129,1.129,0,0,0-.858-.216C1651.016,505.139,1652.243,504.936,1652.69,505.747Z" transform="translate(-236.076 -64.639)"/><path class="a" d="M1652.116,516.085c-.728.163-.657-.4-1.2-.407C1651,514.009,1653.306,514.959,1652.116,516.085Z" transform="translate(-235.863 -71.172)"/><path class="a" d="M1319.78,505.165c.136.374.724.338.65.9-.379.358-.559-.049-.858-.217C1319.565,505.538,1319.8,505.5,1319.78,505.165Z" transform="translate(-8.075 -64.565)"/><path class="a" d="M1652.99,524.646c.1.536-.324.5-.225,1.031l-1.04-.052a1.475,1.475,0,0,1-.121-1.049A1.353,1.353,0,0,1,1652.99,524.646Z" transform="translate(-236.312 -77.8)"/><path class="a" d="M1319.694,514.593l.866.043c.09.647-.312.752-.9.65Z" transform="translate(-8.136 -71.046)"/><path class="a" d="M1652.228,533.853l1.213.06c-.4.344.063.5-.052,1.04a1.085,1.085,0,0,1-1.213-.06C1652.224,534.247,1652.395,534.409,1652.228,533.853Z" transform="translate(-236.727 -84.287)"/><path class="a" d="M1308.766,521.923l.034-.694c.5-.119.437.266.858.216-.327.632.089.28.13.875l-.52-.026c-.169,0-.145.206-.19.338C1308.465,522.2,1309.925,521.57,1308.766,521.923Z" transform="translate(-0.647 -75.593)"/><path class="a" d="M1312.716,521.5c.707,1.394-.874.711,0,0Z" transform="translate(-3.176 -75.794)"/><path class="a" d="M1319.88,522.383a1.078,1.078,0,0,0,.866.043c0,.431-.009.843-.39.849C1319.811,523.328,1319.821,522.878,1319.88,522.383Z" transform="translate(-8.269 -76.402)"/><path class="a" d="M1653,551.735c.555.105.993.315.815,1.083a1.078,1.078,0,0,1-1.378-.242C1652.588,552.261,1652.691,551.887,1653,551.735Z" transform="translate(-236.903 -96.58)"/><path class="a" d="M1320.387,538.547c.388.256.952.352.815,1.083-.147.142-.48.079-.537.32C1320.072,539.793,1320.118,539.056,1320.387,538.547Z" transform="translate(-8.505 -87.514)"/><path class="a" d="M1652.861,560.58c.662.118,1.4.17,1.161,1.1-.638-.217-.515.406-1.057.3A1.205,1.205,0,0,1,1652.861,560.58Z" transform="translate(-237.079 -102.66)"/><path class="a" d="M1321.205,547.863c.043.6-.1.985-.736.832.327-.632-.089-.279-.13-.875A1.078,1.078,0,0,1,1321.205,547.863Z" transform="translate(-8.603 -93.84)"/><path class="a" d="M1320.815,555.791c.736.063.385.8.287,1.231C1320.462,556.735,1320.775,556.545,1320.815,555.791Z" transform="translate(-8.853 -99.368)"/><path class="a" d="M1654.575,588.8c-.524-.152-.525.274-1.048.122C1652.7,587.536,1655.049,586.961,1654.575,588.8Z" transform="translate(-237.532 -121.261)"/><path class="a" d="M1321.032,572.483c.315.212.824.246.65.9-.31-.038-.376.194-.7.139A1.217,1.217,0,0,1,1321.032,572.483Z" transform="translate(-8.981 -110.843)"/><path class="a" d="M1320.792,581.354l.693.034-.034.693Q1320.545,582.239,1320.792,581.354Z" transform="translate(-8.878 -116.942)"/><path class="a" d="M1320.979,589.678c.366-.055.453.142.684.208.119.5-.266.437-.216.858C1320.821,590.814,1320.945,590.205,1320.979,589.678Z" transform="translate(-9.02 -122.657)"/><path class="a" d="M1518.706,605.067c-.039.472.271.363-.034.693A.371.371,0,1,1,1518.706,605.067Z" transform="translate(-144.615 -133.229)"/><path class="a" d="M1320.9,597.49c.486.057.724.338.651.9-.309-.038-.376.194-.7.139A1.219,1.219,0,0,1,1320.9,597.49Z" transform="translate(-8.893 -128.034)"/><path class="a" d="M1475.372,606.018c-.482.425-1.213-.328-1.716-.433C1474.228,604.82,1474.611,605.989,1475.372,606.018Z" transform="translate(-114.002 -133.421)"/><path class="a" d="M1616.109,613.959c.036.652-.833.855-1.239.459C1614.736,613.431,1615.964,613.126,1616.109,613.959Z" transform="translate(-211.073 -139.024)"/><path class="a" d="M1606.189,613.845a1.129,1.129,0,0,1,.858.217c.108.606-.229.722-.4,1.022a.975.975,0,0,0-.685-.208A1.477,1.477,0,0,1,1606.189,613.845Z" transform="translate(-204.958 -139.273)"/><path class="a" d="M1598.2,614.758a.822.822,0,0,0-.2.512c-.56.121-.65-.183-.849-.39C1597.175,614.405,1597.986,614.509,1598.2,614.758Z" transform="translate(-198.897 -139.761)"/><path class="a" d="M1588.927,614.708c-.027.245-.053.49.147.529-.213.434-1.018.358-.849-.39A.975.975,0,0,1,1588.927,614.708Z" transform="translate(-192.748 -139.866)"/><path class="a" d="M1579.824,615.484a.626.626,0,0,1-1.014-.571C1579.168,614.608,1580.1,614.718,1579.824,615.484Z" transform="translate(-186.287 -139.903)"/><path class="a" d="M1569.949,614.787c.7-.078,1.055.148,1.005.745-.414-.092-.392.3-.875.131C1569.876,615.243,1570.118,615.341,1569.949,614.787Z" transform="translate(-180.199 -139.915)"/><path class="a" d="M1552.288,615.077a.652.652,0,0,1,.659.728.977.977,0,0,1-.7.139A.647.647,0,0,1,1552.288,615.077Z" transform="translate(-167.928 -140.125)"/><path class="a" d="M1560.949,615.489a1.474,1.474,0,0,1,1.031.225.819.819,0,0,0-.2.512C1561.185,616.269,1560.8,616.124,1560.949,615.489Z" transform="translate(-173.989 -140.408)"/><path class="a" d="M1543.7,615.74c.456-.027.742.1.668.554a.974.974,0,0,1-.7.139Z" transform="translate(-162.132 -140.578)"/><path class="a" d="M1525.347,615.949c.312-.007.355.23.685.208a.816.816,0,0,0-.2.511l-.52-.026Z" transform="translate(-149.514 -140.724)"/><path class="a" d="M1534.18,616.382c.456-.027.742.1.667.554C1534.392,616.961,1533.977,616.951,1534.18,616.382Z" transform="translate(-155.573 -141.019)"/><path class="a" d="M1497.351,616.266a.814.814,0,0,0,.511.2c.092.606-.638.591-.884.3C1497.051,616.544,1497.3,616.511,1497.351,616.266Z" transform="translate(-130.035 -140.942)"/><path class="a" d="M1479.189,616.495c.3.057.38.318.312.711-.56.121-.523-.3-.849-.39C1478.7,616.568,1479.172,616.781,1479.189,616.495Z" transform="translate(-117.436 -141.099)"/><path class="a" d="M1461.621,616.142c.346.144.682.557.3.884C1461.318,617.118,1461.333,616.387,1461.621,616.142Z" transform="translate(-105.596 -140.857)"/><path class="a" d="M1470.286,616.555c.686,0,.914.9-.034.694Z" transform="translate(-111.662 -141.141)"/><path class="a" d="M1350.963,612.153c-.678.117-.6-.454-1.014-.571C1350.336,610.825,1351.5,611.642,1350.963,612.153Z" transform="translate(-28.958 -137.511)"/><path class="a" d="M1452.59,616.848l-.026.52c-.305-.055-.876.132-.676-.38A.972.972,0,0,1,1452.59,616.848Z" transform="translate(-99.009 -141.337)"/><path class="a" d="M1343.158,611.926c.336.137.439.485.477.892-.2-.038-.31.022-.355.156C1342.9,612.934,1343.243,612.236,1343.158,611.926Z" transform="translate(-24.248 -137.958)"/><path class="a" d="M1433.878,616.663c.038-.2.323-.13.528-.147C1435.03,617.459,1433.207,617.486,1433.878,616.663Z" transform="translate(-86.552 -141.114)"/><path class="a" d="M1443.031,616.866c.455-.027.742.1.668.554C1443.357,617.744,1442.858,617.478,1443.031,616.866Z" transform="translate(-92.924 -141.352)"/><path class="a" d="M1425.594,617.137c-.262.252-.912.124-.85-.39C1425.017,616.485,1425.745,616.543,1425.594,617.137Z" transform="translate(-80.374 -141.171)"/><path class="a" d="M1416.156,616.685c-.038.2.023.31.156.356-.092.382-.926.09-1.04-.052C1415.317,616.612,1415.727,616.639,1416.156,616.685Z" transform="translate(-73.865 -141.212)"/><path class="a" d="M1388.909,616.092c.007.312-.23.355-.208.684q-.82.081-.659-.727A.647.647,0,0,1,1388.909,616.092Z" transform="translate(-55.128 -140.692)"/><path class="a" d="M1397.977,616.839c-.383.362-.773,0-1.031-.225C1396.979,616.093,1398.2,616.172,1397.977,616.839Z" transform="translate(-61.267 -140.948)"/><path class="a" d="M1406.408,616.722l.867.043c.09.587-.322.619-.728.659C1406.585,617.114,1406.353,617.048,1406.408,616.722Z" transform="translate(-67.766 -141.255)"/><path class="a" d="M1349.1,614.557l.693.034c.166.236.139.647.3.884.276-.061.175-.538.711-.312-.193.94-2.241.409-2.8.383C1348.4,615.244,1349.245,615.445,1349.1,614.557Z" transform="translate(-27.626 -139.767)"/><path class="a" d="M1370.405,616.064c.282-.035.29.179.512.2.029.459-.269.557-.719.486C1370.142,616.382,1370.339,616.3,1370.405,616.064Z" transform="translate(-42.872 -140.8)"/><path class="a" d="M1361.354,616.152c.455-.026.742.1.667.554a.97.97,0,0,1-.7.139Z" transform="translate(-36.776 -140.861)"/><path class="a" d="M1337.463,616.087c.4.19,1.1.11,1.005.745-.482-.167-.461.222-.875.131A1.131,1.131,0,0,1,1337.463,616.087Z" transform="translate(-20.354 -140.819)"/><path class="a" d="M1418.269,477.849c.4.42.237.572.113,1.222-9.811,1.232-20.409.15-29.566.62.175-.545-.118-.665-.3-.884-.344.207.392.378-.043.867-1.012-.163-1.239.354-1.2-.408a7.8,7.8,0,0,1-4.87.107c-6.326,1.03-13.114.084-18.439.476-.022-.3.318-.434.026-.52,1.292.139,2.59-.844,3.821.015.552.183.271-.553.554-.667a9.692,9.692,0,0,1,2.062.449c1.518-.945,3.953.217,4.714-.462,7.964-.369,15.281-.016,25.051-.669,6.146-.411,12.71.852,17.615-1.386.165-.885.556-1.537.623-2.054-1.534,2.677-3.658-1.139-4.4,1.172-.92-.105-1.25-.744-1.855-1.134-.811,1.458-2.771,1.677-2.937-.32.86.514,1.8.564,2.08.1.435-.194-.494-.529-.477-.892-1.035.5-2.156.909-2.538,2.132-.71-.334-1.028-.039-1.725-.259-.664-1.531-.929-3.634.405-4.671a3.752,3.752,0,0,1,1.551.251c.036.749.833,1.98.235,2.27a1.128,1.128,0,0,0,.858.216c.4-.234-.364-1.325-.469-1.066.031-.3.51-.746.425-1.542a1.872,1.872,0,0,1,2.548,1.169,3.953,3.953,0,0,1,1.29-1.5c1.607.366,1.5,1.689,1.6,2.685-.937-.035-.72-1.114-1.318-1.455-1.262.118-.684,2.762.019,3.128.358-.274.326-.981.753-1.179,1.458-.23,1.365,1.5,2.739.831.19-.834-.354-1-.806-1.256.4-.348.422-1.119,1.265-.98-.158-.243-.573-.254-.668-.554-.933-.177-.729.9-1.767.608-.132-.869.575-.526.233-1.205.479-.1.332.362.676.381-.1-.564-.094-1.237-.251-1.924.041-.381.739-.037,1.048-.122.5.458.1.858.277,1.4.1.056.646.464.694.034.277.675-.3,2.282.383,2.8a81.8,81.8,0,0,0-.255-8.873c-.858-.35-1.653.138-2.253-.112-.613-1.187,1.383-1.349,1.785-.954a1.729,1.729,0,0,1,.572-1.014c-.077-.482-.4-.745-.46-1.239.5-6.05-.309-10.586.3-16.49-.2-.32.018-1.01-.287-1.23.156-.377.628-.4.9-.651.089-.283-.647-.017-.7.139-.2-1.663.05-3.594-.419-5.58.188-.268.2-.689.537-.321-1.073-5.921-.278-13.022-.649-18.448-.6,1.481-2.81,1.262-3.474,0,.005.493-.6.309-.4,1.023-.557-.066-.749.27-1.4.1-.507-.314-.632-.973-.971-1.438-.209.061-.073.822-.407,1.2a1.752,1.752,0,0,1-2.548-1.168c-.464.774-.765,1.518-1.637,1.482-1.99-.082-1.454-3.708-1.311-5.1,1.2-.551,3.084-.28,2.886,1.359.31-.511.267-1.412.779-1.7,1.091.043,2.729.346,2.193,1.324.664-.12.363-1.305,1.109-1.335a1.923,1.923,0,0,1,1.855,1.135,1.755,1.755,0,0,1,1.793-1.128c-3.344-1.553-8.634-.543-12.314-.436-.969-.486-2.6-.784-3.136.192a4.345,4.345,0,0,1-1.006-.745c-14.923.364-32.095-.415-49.349.16-8.63.288-17.7-.623-26.264.61-3.834-.239-9.575-1.183-13.4.552a2.966,2.966,0,0,0,.486.719c.539.08-.416-.523.2-.511,2.406.54,1.85,5.634-.587,4.835a7.927,7.927,0,0,1-.894-3c-1.137,2.186.8,8.786-.914,11.421-.009.537.7-.5.693.034.092.963-.293.544-.892.477.583.3.7,1.022.962,1.611-.57.7-.4.41-.06,1.213l-.693-.034c.887.694.856,1.2.729,2.816-.414-.092-.393.3-.875.13a3.249,3.249,0,0,1,1.041,3.527c-.479.1-.332-.362-.676-.381a1.086,1.086,0,0,1-.06,1.213c.548.179.556-.24.719-.485a7.327,7.327,0,0,1-.129,2.6c-.56.383-.862.1-1.4.278,1.126-2.146-.916-5.631.75-8.129-.019-.448-.31.223-.693-.034-.082-1.641.521-3.692-.245-5.571.289-.412.854-.52,1.092-.989-.31-.038-.376.194-.7.139.138-1.11.219-1.376-.243-2.1.209-2.462-.132-5.734-.108-8.345.638-.615.313-1.21.632-2.227,2.345-3.078,7.122-1.962,10.874-2.067,13.868-.387,26.52-.608,40.5-.425,1.261.017,3-.309,4.7-.288,1.111.014,2.248.347,3.457.345,3.885-.005,8.257-1.206,11.282.212,4.559-1.295,9.967-.22,14.783-.309,3-.056,5.972-.781,8.51.074.872-.451,2.642-.758,3.483-.175,3.422-.4,10.123-.972,12.756,2.022a6.209,6.209,0,0,0,.582,2.287c-.09.328-.1.743-.555.668q.241.278.494.545c-.727,3.689.073,8.046-.056,11.638,0,.13-.372.471-.372.5,0,.535.328,1.028.269,1.576-.007.069-.384.522-.381.676.017.837.625,1.6.574,2.461-.019.313-.392.54-.39.849.013,1.958.453,3.928.4,5.927-.169,6.584.506,14.844.651,21.922.008.383-.183.433-.208.685a34.215,34.215,0,0,0,.34,3.665c0,.575-.14,1.2-.112,2.253.027,1,.129,1.927.2,2.963C1420.4,473.877,1420.558,477.9,1418.269,477.849Zm-4.239-61.713-.077,1.56c.786.226.964,1,1.491,1.464.039-.2.283-.175.528-.147.488-1-.4-1.281-.772-1.95.49-.008.753-.265.736-.832C1415.134,415.477,1414.643,417.157,1414.03,416.136Zm-7.252,2.594a2.687,2.687,0,0,0,.311-2.764.973.973,0,0,1-.685-.208C1406.045,416.907,1405.8,418.175,1406.779,418.731Zm2.391-2.661a.651.651,0,0,0,.659.727c.341-.314-.087-.318.043-.867A.972.972,0,0,0,1409.169,416.07Zm3.346,2.6c1.079-.01,1.194-2.689-.218-2.617C1411.986,416.678,1411.828,418.412,1412.515,418.668Zm-3.137.192.693.034c.356-.307.085-.632.052-1.04l-.693-.034C1409.075,418.127,1409.344,418.452,1409.378,418.86Zm-97.839.537c.428-1.039.754-2.771-.53-3.328C1310.268,416.838,1310.019,419.328,1311.539,419.4Zm98.314,53c.338.282,1.378.168,1.248-.633A.769.769,0,0,0,1409.852,472.393Zm-2.2,2.323c.755-.607.631-1.065.969-2.037-.4-.414-.649-.957-1.335-1.109C1406.7,472.391,1406.755,474.288,1407.652,474.717Z"/><path class="a" d="M1435.045,507.106c-.849.1-1.218.727-1.793,1.128-3.324-.321-5.495.537-7.8-.386-6.815,1.052-13.957-.155-21.369-.017-.594.011-1.153.375-1.759.434-2.105.205-4.92-.152-7.288-.188-1.324-.02-2.46.439-3.813-.189-.234.6-3.313.827-3.83.158-4.863,1.05-10.308.038-15.649.267-4.289.183-8.971,1.017-13.024-.124-1.553.647-4.441.5-6.768-.161.864.107.007-.458-.113-1.222a75.99,75.99,0,0,0,.032-7.643,11.668,11.668,0,0,1,.77-1.526c-.156-.6-.078.479-.528.148a8.063,8.063,0,0,1,.146-2.947c-.29-.341-.516.181-.858-.216-.026-.544.479.465.529-.148.4-2.376-.6-4.65.3-6.066-.594-.34-.6-1.93-.218-2.617,1.087.034,2.048.6,3.129-.019.774.05.2.407.485.719a1.061,1.061,0,0,1,1.083-.815c8.768.281,19.93-.741,30.432-.577,4.163.065,8.639.514,12.66.454.808-.013,1.676-.394,2.452-.4,10.88-.082,22.311-.008,32.487.047a9.163,9.163,0,0,1,.166,3.656c-.291,2.94.649,6.314.247,9.047-.042.284-.18.369-.182.165C1434.994,500.548,1435.387,504.19,1435.045,507.106Zm-82.029-6.5c.453,1.14.067,4.208.384,6.274,15.28,1.034,29.724-.562,43.4.587,2.139-.887,4.6-.3,7.14-.341,9.487-.168,20.161-.182,29.211-.463,1.085-1.548-.48-5.826.872-7.08-.546,0-.574-.474-.651-.9a106.212,106.212,0,0,0-.109-11.82c-9.361-.125-17.983-.125-26.56-.448-4.323-.162-8.89.769-13.4.379-.384-.033-.819-.239-1.2-.233-9.583.137-19.6.081-30.58.048a42.039,42.039,0,0,0-8.552.793c.255,4.283.48,9.115-.107,12.677C1353.251,499.557,1353.576,500.519,1353.016,500.608Zm7.3-14.058c-.22-.148-.884-.724-1.023-.4C1359.407,486.394,1359.949,487.081,1360.315,486.55Z" transform="translate(-29.956 -50.758)"/><path class="a" d="M1309.911,511.528l.017-.347c-.149-.159-.954-.545-1.031-.225-.63-.28.7-1.482-.269-1.577-.1-.54.492-.309.389-.849.541-.1.182.608.849.389.114,1.025.353,1.762.4,2.453-.126.36-1.156.656-.745,1.005-.043.535-.65-.569-.693-.034a2.291,2.291,0,0,1-.286-1.231C1309.064,511.192,1309.134,511.68,1309.911,511.528Zm-1-.918c.256-.082.886.247.875-.13-.3-.068.255-.591-.494-.546C1309.192,510.186,1309.017,510.358,1308.914,510.61Z" transform="translate(-0.493 -66.871)"/><path class="a" d="M1320.514,530.545c.337-.543.493.9.122,1.048l-.52-.026a1.129,1.129,0,0,1-.131-.875C1320.245,531.224,1320.829,530.849,1320.514,530.545Z" transform="translate(-8.339 -81.929)"/><path class="a" d="M1320.35,497.417c.171,1.05-.959.969-.875.131A1.129,1.129,0,0,1,1320.35,497.417Z" transform="translate(-8.006 -59.217)"/><path class="a" d="M1653.573,543.213l-.043.866c-.432.152-.372.04-1.049.122a1.472,1.472,0,0,1-.122-1.048C1653.124,543.17,1653.081,542.948,1653.573,543.213Z" transform="translate(-236.832 -90.631)"/><path class="a" d="M1309.325,527.161c.115.446.63-.458.866.043-.13,2.989.177,6.362.022,10.077-.564.125-.337-.467-.668-.554-.5.151.012.738-.052,1.04a.976.976,0,0,1,.7-.139c-.092.414.3.392.13.875-.358.272-.219-.027-.693-.034.357.292.667.979.114,1.221.063.261.226-.057.52.026-.457,1.17.076,1.878-.64,2.4.947.122,1,1.793.565,2.634-.371.331-.336-.094-.685-.208.018.481.625.428.832.736-.351.249-.364.6.113,1.222-.283.114,0,.85-.555.668.282.409.826,1.659-.086,1.733.866.264.475,1.667.747,2.469.509-.291.712-.919,1.108-1.335a1.418,1.418,0,0,1,1.023.4c-.024.583-.82.313-1.074.641,0,.549-.046,1.046-.407,1.2.816-.112-.031,1.421.954,1.784,1.409-.484.692-2.065.692-3.44,1.371.216.087,1.811,1.1,2.313.787-.246.108-1.212-.1-1.568.122-.17.407-.159.372-.5.813.091.373,1.318,1.326,1.282.374.048.109-.611.217-.858-.218-.465-1.112-.318-1.353-.762,2.32-1.923,1.4,2.323,3.182,2.416.05.422-.335.361-.216.858a.474.474,0,0,1-.5-.372c-.535.262-.511,1.142-.944,1.517a1.948,1.948,0,0,1-2.2-1.152,9.156,9.156,0,0,0-1.1,1.162,2.785,2.785,0,0,1-1.542-.423c.051-.248.52-.035.537-.322-.1-.151-.784-.582-.858-.216-.344-.185-.341-.684-.286-1.23-.688.136.2.879-.563.84.077.427.1.9.65.9-.183,4.5,7.118,1.3,8.139,4.051-3.5.091-7.837.786-9.438-2.378-.736-1.456-.218-3.863-.782-5.251,1.442-.732-.6-2.667.708-3.787-.033-.356-.452-.363-.485-.719.624-2.831-.052-3.589-.046-6.083.8.378.157-.24.892-.478-.122-.515-.447.2-.866-.043.382-1.141.095-2.747.519-3.449a.763.763,0,0,0-.676-.381c.175-2.288.61-3.856-.072-5.563a.479.479,0,0,1,.537-.321c-.467-1.519-.079-3.1-.5-4.02.326-.2,1.438-.469,1.577-.269-.347.478-.35.481-.727.659C1309.405,526.576,1309.758,527.156,1309.325,527.161Zm5.956,27.05c.268-.191.782-.112.728-.659,0-.222-.21-.251-.147-.528l-1.386-.069C1314.475,553.617,1314.665,554.107,1315.281,554.211Z" transform="translate(-0.443 -78.708)"/><path class="a" d="M1653.024,570.034c.46.025.993-.016,1.2.234.1.9-.495,1.038-1.265.98C1652.958,570.612,1652.759,570.571,1653.024,570.034Z" transform="translate(-237.215 -109.16)"/><path class="a" d="M1379.182,616.485l.866.043c.09.587-.322.619-.727.659A.973.973,0,0,1,1379.182,616.485Z" transform="translate(-49.049 -141.093)"/><path class="a" d="M1387.664,627.434c-.306,1.064-2.565-.029-3.163.712a9.353,9.353,0,0,0-1.369-.415c-7.331.537-13.862-.26-21.039.348-.267-.254-.886-.191-1.014-.571a13.012,13.012,0,0,1-6.256.037,13.356,13.356,0,0,1-6.594-.153c-.052.294.273.464-.026.52-2.6-1.315-4.021,1.239-5.676-1.15,8.079-.393,18.081-.573,25.866.414.261-.063-.057-.225.026-.52,6.24.871,13.289-.58,18.223.382.254.049.026,0,.347.017C1387.218,627.065,1387.667,627.055,1387.664,627.434Z" transform="translate(-23.855 -147.941)"/><path class="b" d="M1382.467,439.78q0-1.256-.865-1.256a1.4,1.4,0,0,0-.357.034,2.577,2.577,0,0,1-.459.051.494.494,0,0,1-.373-.161.558.558,0,0,1-.153-.4q0-.594.71-.594l.254.017q2.537.17,2.368.17h.169l4.076-.119q.119,0,.88-.051.27-.017.491-.017.879,0,.88.781,0,.136-.048.866-.037.543-.036,1a8.264,8.264,0,0,0,.028.832,6.943,6.943,0,0,1,.057.73q0,.645-.6.645t-.6-.9v-.882q0-1.426-.594-1.681a7.946,7.946,0,0,0-2.274-.187,10.42,10.42,0,0,0-1.426.051.93.93,0,0,0-.73,1.018v1.7q0,.679.3.781a1.618,1.618,0,0,0,.4.034h.687q1.055,0,1.055-.73a4.245,4.245,0,0,0-.042-.526,4.448,4.448,0,0,1-.042-.577q0-.678.6-.679t.6.73q0,.136-.11,1.053a11.7,11.7,0,0,0-.094,1.375q0,.34.068,1.205.017.136.085.594a4.625,4.625,0,0,1,.051.594.54.54,0,0,1-.611.611q-.595,0-.594-.713a4.942,4.942,0,0,1,.042-.543,5.031,5.031,0,0,0,.042-.543q0-.729-.968-.73h-.764q-.493,0-.6.17a1.552,1.552,0,0,0-.11.73v1.053q0,.271.017.73.016.56.017.747.017.679.272.849a2,2,0,0,0,.883.119h2.308a2.3,2.3,0,0,0,1.375-.3,1.36,1.36,0,0,0,.374-1.112q0-.255-.026-.755t-.025-.755q0-.764.6-.764.637,0,.636.781,0,.306-.026.934t-.025.934q0,.238.025.7t.026.7a.7.7,0,0,1-.781.8q-.187,0-.594-.034-.2-.017-.747-.017.119,0-1.324-.034t-2.495-.034q-1.6,0-3.124.1a.766.766,0,0,0-.152.017h-.1q-.713,0-.713-.611a.473.473,0,0,1,.526-.543q.085,0,.459.034a1.361,1.361,0,0,0,.357.051q.865,0,.865-1.273Z" transform="translate(-49.796 -18.017)"/><path class="b" d="M1418.078,453.527l2.359-2.713-2.359-2.8a.739.739,0,0,0-.577-.273.786.786,0,0,0-.2.02l-.288.079a.955.955,0,0,1-.238.02.488.488,0,0,1-.56-.543q0-.577.7-.577h.051l.849.051a4.636,4.636,0,0,0,.713.068,8.225,8.225,0,0,0,.832-.059q.543-.06.815-.06.7,0,.7.577,0,.543-.645.543a.793.793,0,0,1-.255-.04l-.255-.079h-.1c-.046,0-.068.012-.068.034a.753.753,0,0,0,.153.241l1.545,1.9,1.612-1.9c.1-.115.153-.2.153-.241-.011-.023-.039-.034-.084-.034a1.086,1.086,0,0,0-.276.059,1.089,1.089,0,0,1-.293.059q-.6,0-.6-.569,0-.551.713-.552-.034,0,.9.085.373.034.8.034a7.255,7.255,0,0,0,.9-.059,6.259,6.259,0,0,1,.678-.06q.747,0,.747.569,0,.552-.579.552a1.869,1.869,0,0,1-.392-.059,1.877,1.877,0,0,0-.392-.059q-.409,0-1.125.817l-1.977,2.247,2.648,3.131a.723.723,0,0,0,.577.289,2.173,2.173,0,0,0,.314-.034,2.239,2.239,0,0,1,.314-.034q.611,0,.611.543,0,.594-.713.594h-.136l-.662-.085a7.183,7.183,0,0,0-.815-.034,8.269,8.269,0,0,0-.917.051l-.611.068h-.187q-.8,0-.8-.543,0-.594.628-.594a4.153,4.153,0,0,1,.628.068.284.284,0,0,0,.119.017c.113,0,.17-.045.17-.136a.148.148,0,0,0-.051-.1l-.051-.068-1.884-2.207-1.918,2.207a.389.389,0,0,0-.119.2c0,.057.056.085.17.085a2.723,2.723,0,0,0,.356-.034,2.794,2.794,0,0,1,.356-.034q.73,0,.73.594,0,.543-.73.543h-.238l-.679-.068q-.509-.051-.9-.051a6.231,6.231,0,0,0-.729.051,8.176,8.176,0,0,1-.849.068q-.713,0-.713-.577,0-.56.611-.56a2.66,2.66,0,0,1,.305.026,2.721,2.721,0,0,0,.306.025Q1417.483,454.21,1418.078,453.527Z" transform="translate(-74.324 -24.401)"/><path class="b" d="M1453.986,446.6v.543a3.028,3.028,0,0,1,2.6-1.324,3.369,3.369,0,0,1,2.7,1.171,4.725,4.725,0,0,1,1,3.174,5.223,5.223,0,0,1-1.061,3.437,3.5,3.5,0,0,1-2.843,1.282,3.045,3.045,0,0,1-2.393-1.035v1.409a5.977,5.977,0,0,0,.034.832q.1.526.492.526a1.866,1.866,0,0,0,.356-.051,1.863,1.863,0,0,1,.357-.051.488.488,0,0,1,.543.56q0,.56-.71.56a6.363,6.363,0,0,1-.761-.068,9,9,0,0,0-1.116-.051,5.542,5.542,0,0,0-.677.034q-.677.085-.9.085a.726.726,0,0,1-.491-.176.528.528,0,0,1-.2-.41q0-.535.572-.535a1.846,1.846,0,0,1,.319.044,2.363,2.363,0,0,0,.42.058.375.375,0,0,0,.4-.331,12.976,12.976,0,0,0,.093-1.842v-6.552q-.017-.781-.437-.781a1.706,1.706,0,0,0-.362.059,1.71,1.71,0,0,1-.378.059q-.622,0-.622-.56,0-.543.747-.543c.124,0,.26.006.407.017q.425.034.628.034c.1,0,.249-.008.441-.025s.334-.025.424-.025Q1453.986,446.124,1453.986,446.6Zm.255,2.071a7.889,7.889,0,0,0-.17,1.612c0,.045-.006.13-.017.255v.238a5.281,5.281,0,0,0,.187,1.655,2.012,2.012,0,0,0,.738.925,2.471,2.471,0,0,0,3.259-.484,4.159,4.159,0,0,0,.67-2.538q0-3.395-2.41-3.395a2.308,2.308,0,0,0-1.451.493A2.125,2.125,0,0,0,1454.241,448.67Z" transform="translate(-98.368 -23.766)"/><path class="b" d="M1486.639,441.46v5.27q.017.864.463.864a2.213,2.213,0,0,0,.428-.085,2.166,2.166,0,0,1,.275-.034.505.505,0,0,1,.566.577q0,.56-.694.56a8.6,8.6,0,0,1-.863-.068,8.593,8.593,0,0,0-.913-.068,7.142,7.142,0,0,0-.812.068,7.2,7.2,0,0,1-.795.068h-.085q-.71,0-.71-.611,0-.526.582-.526h.12a.746.746,0,0,0,.154.024,4.28,4.28,0,0,0,.5.1.356.356,0,0,0,.385-.264,7.273,7.273,0,0,0,.094-1.371l.017-1.192v-5.672a5.272,5.272,0,0,0-.051-.681.474.474,0,0,0-.476-.392q-.051,0-.441.068a1.736,1.736,0,0,1-.305.034q-.578,0-.577-.543,0-.56.679-.56a2.658,2.658,0,0,1,.323.017l.407.051a3.7,3.7,0,0,0,.458.034,3.759,3.759,0,0,0,.509-.051,3.8,3.8,0,0,1,.509-.051q.39,0,.39.492a1.41,1.41,0,0,1-.017.254Q1486.639,439.07,1486.639,441.46Z" transform="translate(-120.768 -17.718)"/><path class="b" d="M1505.666,454.882a3.588,3.588,0,0,1-2.852-1.231,5.612,5.612,0,0,1,.008-6.6,3.654,3.654,0,0,1,2.894-1.23,3.7,3.7,0,0,1,2.92,1.205,4.761,4.761,0,0,1,1.069,3.276,4.859,4.859,0,0,1-1.1,3.327A3.716,3.716,0,0,1,1505.666,454.882Zm.085-7.944a2.28,2.28,0,0,0-1.867.832,3.93,3.93,0,0,0-.747,2.359v.221a4.135,4.135,0,0,0,.671,2.5,2.2,2.2,0,0,0,1.876.908,2.323,2.323,0,0,0,1.943-.908,4.022,4.022,0,0,0,.7-2.521Q1508.331,446.938,1505.751,446.938Z" transform="translate(-133.312 -23.766)"/><path class="b" d="M1533.155,446.591v.467a2.961,2.961,0,0,1,4.286-.569,2.223,2.223,0,0,1,.739,1.723,1.885,1.885,0,0,1-.374,1.214,1.2,1.2,0,0,1-.984.467.969.969,0,0,1-.662-.238.74.74,0,0,1-.271-.577.679.679,0,0,1,.2-.483.638.638,0,0,1,.475-.212,1.027,1.027,0,0,1,.221.051.844.844,0,0,0,.1-.374,1.023,1.023,0,0,0-.433-.832,1.694,1.694,0,0,0-1.078-.339,1.715,1.715,0,0,0-1.765,1.188,6.714,6.714,0,0,0-.272,2.207v1.12q0,1.137.017,1.273.084.967.526.967a1.93,1.93,0,0,0,.458-.058,1.448,1.448,0,0,1,.323-.044.477.477,0,0,1,.543.535q0,.586-.693.585h-.068a7.472,7.472,0,0,1-.77-.059,7.4,7.4,0,0,0-.77-.06q-.676,0-1.065.034l-.947.085q-.694,0-.693-.594,0-.526.651-.526a1.438,1.438,0,0,1,.257.017l.257.051a1.427,1.427,0,0,0,.24.034q.428,0,.463-.781V452l-.051-3.853q-.051-1-.509-1a1.9,1.9,0,0,0-.374.051,1.892,1.892,0,0,1-.373.051.488.488,0,0,1-.56-.543q0-.594.73-.594a4.553,4.553,0,0,1,.509.043,4.475,4.475,0,0,0,.509.042,3.615,3.615,0,0,0,.441-.042,1.09,1.09,0,0,1,.322-.043Q1533.156,446.106,1533.155,446.591Z" transform="translate(-152.875 -23.766)"/><path class="b" d="M1565.823,449.6a2.08,2.08,0,0,1-.085.789q-.085.144-.492.144h-5.4a.474.474,0,0,0-.289.059.247.247,0,0,0-.068.2,3.054,3.054,0,0,0,.764,2.122,2.53,2.53,0,0,0,3.267.441,1.864,1.864,0,0,0,.806-1.035l.153-.492a.527.527,0,0,1,.56-.407.563.563,0,0,1,.628.645,2.452,2.452,0,0,1-1.12,1.96,4.08,4.08,0,0,1-2.546.857,3.585,3.585,0,0,1-2.835-1.2,4.7,4.7,0,0,1-1.052-3.216,4.942,4.942,0,0,1,1.12-3.361,3.683,3.683,0,0,1,2.919-1.29,3.5,3.5,0,0,1,2.631,1.07A3.745,3.745,0,0,1,1565.823,449.6Zm-6.161-.441c0,.158.124.238.373.238h4.057q.357,0,.357-.238a2.111,2.111,0,0,0-.679-1.561,2.211,2.211,0,0,0-1.6-.662,2.558,2.558,0,0,0-1.731.688A2.02,2.02,0,0,0,1559.662,449.162Z" transform="translate(-172.065 -23.766)"/><path class="b" d="M1588.5,446.591v.467a2.961,2.961,0,0,1,4.286-.569,2.222,2.222,0,0,1,.738,1.723,1.885,1.885,0,0,1-.373,1.214,1.2,1.2,0,0,1-.985.467.971.971,0,0,1-.662-.238.739.739,0,0,1-.271-.577.679.679,0,0,1,.2-.483.638.638,0,0,1,.475-.212,1.028,1.028,0,0,1,.221.051.841.841,0,0,0,.1-.374,1.023,1.023,0,0,0-.433-.832,1.7,1.7,0,0,0-1.078-.339,1.715,1.715,0,0,0-1.765,1.188,6.718,6.718,0,0,0-.272,2.207v1.12q0,1.137.017,1.273.084.967.526.967a1.929,1.929,0,0,0,.458-.058,1.446,1.446,0,0,1,.323-.044.477.477,0,0,1,.543.535q0,.586-.693.585h-.068a7.475,7.475,0,0,1-.77-.059,7.4,7.4,0,0,0-.77-.06q-.676,0-1.065.034l-.947.085q-.694,0-.693-.594,0-.526.651-.526a1.437,1.437,0,0,1,.257.017l.257.051a1.427,1.427,0,0,0,.24.034q.428,0,.463-.781V452l-.051-3.853q-.051-1-.509-1a1.894,1.894,0,0,0-.374.051,1.9,1.9,0,0,1-.373.051.488.488,0,0,1-.56-.543q0-.594.73-.594a4.551,4.551,0,0,1,.509.043,4.467,4.467,0,0,0,.509.042,3.621,3.621,0,0,0,.441-.042,1.089,1.089,0,0,1,.322-.043Q1588.5,446.106,1588.5,446.591Z" transform="translate(-190.919 -23.766)"/><path class="b" d="M1420.174,581.983v-6.794q0-1.254-.859-1.254a3.058,3.058,0,0,0-.354.027,4.09,4.09,0,0,1-.455.041q-.539,0-.539-.56,0-.594.745-.594a2.076,2.076,0,0,1,.254.017l.83.1a8.378,8.378,0,0,0,1.017.051q.424,0,1.017-.051,1.389-.118,2.1-.119a8.857,8.857,0,0,1,1.864.17,2.9,2.9,0,0,1,1.754,1.052,3.105,3.105,0,0,1,.635,1.969,2.908,2.908,0,0,1-1.095,2.444,5.085,5.085,0,0,1-3.166.849h-1.9c-.181,0-.3.031-.348.093a.772.772,0,0,0-.076.43v.339a14.557,14.557,0,0,0,.127,2.6q.128.456.738.456a1.24,1.24,0,0,0,.357-.051q.373-.034.459-.034a.473.473,0,0,1,.526.543q0,.611-.747.611l-.238-.034-.849-.119a8.206,8.206,0,0,0-1.069-.051,7.4,7.4,0,0,0-.967.051l-.985.136a.465.465,0,0,0-.1.017h-.119q-.764,0-.764-.594a.556.556,0,0,1,.153-.4.5.5,0,0,1,.373-.162,2.574,2.574,0,0,1,.458.051,1.382,1.382,0,0,0,.357.034Q1420.174,583.254,1420.174,581.983Zm1.545-7.691a2.108,2.108,0,0,0-.119.933v2.512q0,.458.645.526h.985a8.957,8.957,0,0,0,2-.187,1.824,1.824,0,0,0,1.511-1.986q0-2.156-2.75-2.156Q1421.956,573.935,1421.719,574.292Z" transform="translate(-75.719 -111.095)"/><path class="b" d="M1459.96,590.209a1.57,1.57,0,0,1-1.715-1.205,3.052,3.052,0,0,1-2.716,1.273,3.348,3.348,0,0,1-2.2-.679,2.233,2.233,0,0,1-.823-1.816,2.2,2.2,0,0,1,1.205-2.071,3.171,3.171,0,0,1,.789-.331q.331-.076,1.332-.2a5.1,5.1,0,0,0,1.859-.424,1.088,1.088,0,0,0,.433-1,1.342,1.342,0,0,0-.484-1.095,2.064,2.064,0,0,0-1.35-.4,2.6,2.6,0,0,0-1.425.424q-.255.17-.255.357c0,.046.051.1.153.17a.661.661,0,0,1,.238.577.719.719,0,0,1-.246.56.893.893,0,0,1-.619.221.987.987,0,0,1-.739-.306,1.03,1.03,0,0,1-.3-.747,1.974,1.974,0,0,1,.942-1.63,3.8,3.8,0,0,1,2.283-.679q3.089,0,3.089,2.964V587.6a7.173,7.173,0,0,0,.034.965q.1.593.577.593.594,0,.594-1.079v-.826q0-.539.518-.539.551,0,.551.815v1.052A1.505,1.505,0,0,1,1459.96,590.209Zm-1.884-3.378v-1.205a2.173,2.173,0,0,1-.786.475,7.822,7.822,0,0,1-1.479.237q-1.927.188-1.927,1.426a1.233,1.233,0,0,0,.467,1.018,1.97,1.97,0,0,0,1.265.373,2.5,2.5,0,0,0,1.791-.62A2.291,2.291,0,0,0,1458.076,586.831Z" transform="translate(-99.463 -116.845)"/><path class="b" d="M1487.348,580.989a2.988,2.988,0,0,1,1.894.594v-.068q0-.627.543-.628a.488.488,0,0,1,.56.543q0,.1-.028.509a4.156,4.156,0,0,0-.057.679,5.912,5.912,0,0,0,.042.594q.042.391.042.594,0,.645-.552.645a.493.493,0,0,1-.552-.543v-.56a1.088,1.088,0,0,0-.585-.874,2.415,2.415,0,0,0-1.332-.365,2.1,2.1,0,0,0-1.307.4,1.2,1.2,0,0,0-.526.993q0,1.086,1.494,1.29l.984.136q2.886.391,2.886,2.394a2.425,2.425,0,0,1-.931,1.977,3.749,3.749,0,0,1-2.437.755,3.871,3.871,0,0,1-2.437-.8v.322q0,.611-.577.611-.628,0-.628-.7a8.647,8.647,0,0,0,.1-.883,3.358,3.358,0,0,0,.034-.475,4.1,4.1,0,0,0-.068-.764,3.173,3.173,0,0,1-.068-.56q0-.594.543-.594.357,0,.45.17a2.615,2.615,0,0,1,.11.9,1.4,1.4,0,0,0,.764,1.188,3.581,3.581,0,0,0,1.9.458,2.165,2.165,0,0,0,1.375-.424,1.3,1.3,0,0,0,.543-1.069q0-1.154-1.833-1.341a7.332,7.332,0,0,1-2.665-.688,1.829,1.829,0,0,1-.916-1.757,2.378,2.378,0,0,1,.9-1.927A3.553,3.553,0,0,1,1487.348,580.989Z" transform="translate(-121.006 -116.621)"/><path class="b" d="M1514.067,580.989a2.988,2.988,0,0,1,1.895.594v-.068q0-.627.543-.628a.488.488,0,0,1,.56.543q0,.1-.028.509a4.142,4.142,0,0,0-.056.679q0,.2.042.594t.042.594q0,.645-.551.645a.493.493,0,0,1-.552-.543v-.56a1.088,1.088,0,0,0-.585-.874,2.415,2.415,0,0,0-1.333-.365,2.1,2.1,0,0,0-1.307.4,1.2,1.2,0,0,0-.526.993q0,1.086,1.494,1.29l.984.136q2.886.391,2.886,2.394a2.425,2.425,0,0,1-.931,1.977,3.75,3.75,0,0,1-2.437.755,3.871,3.871,0,0,1-2.437-.8v.322q0,.611-.577.611-.628,0-.628-.7a8.505,8.505,0,0,0,.1-.883,3.376,3.376,0,0,0,.034-.475,4.065,4.065,0,0,0-.068-.764,3.2,3.2,0,0,1-.068-.56q0-.594.544-.594.356,0,.45.17a2.625,2.625,0,0,1,.11.9,1.4,1.4,0,0,0,.764,1.188,3.582,3.582,0,0,0,1.9.458,2.165,2.165,0,0,0,1.375-.424,1.3,1.3,0,0,0,.543-1.069q0-1.154-1.833-1.341a7.329,7.329,0,0,1-2.665-.688,1.829,1.829,0,0,1-.916-1.757,2.377,2.377,0,0,1,.9-1.927A3.553,3.553,0,0,1,1514.067,580.989Z" transform="translate(-139.374 -116.621)"/></g><text class="c" transform="translate(-9327 16548)"><tspan x="0" y="0">Wells</tspan></text></g></svg>