<?xml version="1.0" encoding="utf-8"?>
<!-- Generator: Adobe Illustrator 24.3.0, SVG Export Plug-In . SVG Version: 6.00 Build 0)  -->
<svg version="1.1" id="logo.black.icon_1_" xmlns="http://www.w3.org/2000/svg" xmlns:xlink="http://www.w3.org/1999/xlink" x="0px"
	 y="0px" viewBox="0 0 933.3 933.3" style="enable-background:new 0 0 933.3 933.3;" xml:space="preserve">
<path id="type.c_2_" d="M466.5,563.7c16.1,0,30.6,6.5,41.2,17.1l0,0c11.4,11.4,29.8,11.4,41.2,0c11.4-11.4,11.4-29.8,0-41.2
	c-21.1-21.1-50.2-34.1-82.4-34.1c-66.2,0-119.5,55.2-116.4,122.1c2.7,59.7,51.2,108.2,110.9,110.9c34.4,1.6,65.6-11.7,87.9-34l0,0
	c11.4-11.4,11.4-29.8,0-41.2c-11.4-11.4-29.8-11.4-41.2,0c-9.8,9.8-22.9,16.1-37.4,17c-33.8,2.1-62-24.8-62-58.2
	C408.3,589.8,434.4,563.7,466.5,563.7z"/>
<path id="type.m_2_" d="M462.7,194.6C315.3,196.7,193,322.2,194.6,469.5c1,91.8,47.4,172.6,117.8,221.1c8.7,6,20.3-1.3,18.8-11.7
	l-32.3-221.2c-3.2-22.1,18.6-39.5,39.4-31.4l119.5,37.4c5.7,1.8,11.7,1.8,17.4,0l119.5-37.4c20.8-8.1,42.6,9.3,39.4,31.4
	l-32.3,221.2c-1.5,10.4,10.1,17.7,18.8,11.7c71.2-49,117.9-131.1,117.9-224.1C738.5,315.1,614.7,192.5,462.7,194.6z"/>
<path id="top_6_" d="M778,234.2c-70.9-94.7-183.9-156-311.3-156c-214.6,0-388.5,173.9-388.5,388.5c0,127.4,61.3,240.4,156,311.3
	c64.8,48.4,145.2,77.1,232.4,77.1c214.6,0,388.5-174,388.5-388.5C855.1,379.4,826.4,299,778,234.2z M686.3,686.3
	c-58.7,58.7-136.8,91-219.8,91s-161.1-32.3-219.8-91c-58.7-58.7-91-136.8-91-219.8c0-83,32.3-161.1,91-219.8
	c58.7-58.7,136.8-91,219.8-91s161.1,32.3,219.8,91c58.7,58.7,91,136.8,91,219.8C777.4,549.6,745,627.6,686.3,686.3z"/>
<path id="frame_3_" d="M136.7,136.7c-182.2,182.2-182.2,477.6,0,659.8c182.2,182.2,477.6,182.2,659.8,0
	c182.2-182.2,182.2-477.6,0-659.8C614.3-45.6,318.9-45.6,136.7,136.7z M768.9,768.9c-167,167-437.8,167-604.8,0s-167-437.8,0-604.8
	s437.8-167,604.8,0S935.9,601.9,768.9,768.9z"/>
</svg>
