<?xml version="1.0" standalone="no"?>
<!DOCTYPE svg PUBLIC "-//W3C//DTD SVG 20010904//EN"
 "http://www.w3.org/TR/2001/REC-SVG-20010904/DTD/svg10.dtd">
<svg version="1.0" xmlns="http://www.w3.org/2000/svg"
 width="700.000000pt" height="700.000000pt" viewBox="0 0 700.000000 700.000000"
 preserveAspectRatio="xMidYMid meet">
<g transform="translate(0.000000,700.000000) scale(0.100000,-0.100000)"
fill="#000000" stroke="none">
<path d="M2587 6994 c-1 -1 -54 -4 -117 -7 -149 -8 -354 -39 -500 -76 -367
-95 -724 -279 -1019 -526 -243 -204 -392 -381 -598 -710 -98 -156 -245 -530
-279 -709 -2 -12 -6 -32 -9 -46 -15 -63 -34 -181 -40 -245 -4 -38 -9 -81 -11
-95 -5 -37 -5 -358 1 -415 10 -115 33 -265 55 -360 7 -27 13 -57 15 -65 12
-52 61 -207 92 -289 97 -261 265 -545 452 -766 57 -67 1926 -1940 2021 -2025
383 -343 883 -566 1420 -636 98 -13 458 -20 505 -10 11 2 52 7 90 10 74 7 85
8 208 31 389 73 785 253 1107 504 135 105 307 270 389 371 20 25 39 47 42 50
39 33 210 295 283 431 125 237 235 566 262 784 4 28 8 52 10 56 1 3 6 39 9 80
4 40 8 80 11 88 6 19 5 351 -1 421 -50 544 -259 1053 -600 1459 -62 73 -1963
1981 -2035 2041 -14 12 -36 31 -50 43 -69 61 -248 189 -325 233 -282 160 -475
239 -738 303 -118 29 -140 33 -237 47 -25 3 -56 8 -70 10 -36 6 -338 22 -343
18z m238 -227 c131 -13 180 -20 306 -48 368 -80 707 -243 1005 -483 82 -66
1198 -1173 1173 -1164 -58 22 -258 83 -328 100 -114 27 -114 27 -201 39 -41 5
-86 12 -100 14 -42 8 -240 18 -325 18 -874 -4 -1695 -454 -2177 -1193 -63 -96
-200 -355 -226 -425 -6 -16 -27 -75 -47 -130 -34 -94 -87 -286 -100 -365 -3
-19 -10 -61 -16 -93 -29 -163 -39 -403 -25 -592 7 -93 8 -102 21 -195 7 -54 9
-63 20 -125 16 -87 52 -220 85 -319 21 -61 37 -112 35 -114 -3 -3 -975 967
-1071 1069 -346 367 -578 897 -620 1419 -15 182 -6 424 21 570 3 14 7 41 10
60 32 200 121 457 231 668 332 639 934 1097 1639 1247 33 7 85 16 115 20 30 4
64 9 75 11 11 3 63 7 115 11 52 3 96 6 97 7 4 4 238 -3 288 -7z m1770 -1752
c60 -5 147 -18 270 -41 306 -56 670 -222 955 -437 392 -295 708 -752 849
-1224 97 -328 124 -717 71 -1047 -5 -33 -12 -79 -16 -101 -3 -22 -8 -43 -10
-46 -2 -3 -6 -19 -8 -36 -3 -16 -17 -69 -31 -118 -165 -568 -540 -1063 -1039
-1372 -265 -164 -573 -280 -866 -328 -19 -3 -46 -7 -60 -10 -115 -20 -426 -27
-566 -13 -459 46 -875 213 -1244 497 -95 73 -322 293 -388 376 -90 112 -193
271 -265 405 -112 213 -211 509 -242 723 -3 27 -8 57 -10 67 -8 41 -18 212
-19 315 -4 540 179 1065 525 1501 78 98 294 314 374 374 33 25 62 47 65 50 12
13 111 80 181 122 325 197 704 321 1058 345 47 3 87 6 89 8 4 4 253 -3 327
-10z"/>
<path d="M4267 4804 c-1 -1 -40 -5 -87 -8 -90 -7 -101 -8 -220 -31 -115 -22
-117 -23 -224 -56 -644 -198 -1160 -681 -1399 -1309 -32 -85 -73 -215 -82
-259 -2 -9 -10 -50 -18 -91 -49 -238 -54 -547 -12 -775 22 -120 25 -135 41
-200 138 -539 505 -1025 996 -1318 248 -148 560 -257 810 -283 35 -3 67 -9 71
-11 16 -9 351 -11 437 -2 645 66 1218 403 1583 930 187 269 324 620 363 924 3
22 8 51 11 65 11 58 10 382 -2 490 -66 576 -342 1077 -801 1458 -95 78 -271
189 -406 255 -236 116 -489 187 -752 213 -64 6 -304 12 -309 8z m338 -449 c44
-7 96 -16 115 -19 48 -7 194 -50 271 -79 359 -136 674 -400 874 -732 91 -151
169 -342 201 -495 3 -14 9 -43 14 -65 5 -22 12 -62 15 -90 4 -27 8 -61 11 -75
6 -31 6 -297 0 -325 -2 -11 -7 -47 -10 -80 -4 -33 -9 -67 -11 -75 -2 -8 -6
-26 -9 -40 -22 -121 -73 -272 -137 -405 -171 -355 -443 -630 -798 -806 -103
-51 -253 -108 -322 -123 -13 -3 -53 -12 -89 -20 -113 -25 -131 -27 -297 -33
-180 -6 -299 5 -458 42 -438 103 -818 368 -1061 740 -47 72 -140 253 -171 330
-15 40 -52 157 -58 181 -9 44 -35 172 -41 204 -10 56 -14 380 -4 440 4 30 11
75 15 99 3 25 17 85 30 135 179 689 760 1202 1460 1292 28 3 52 8 53 9 10 9
338 1 407 -10z"/>
<path d="M4255 4148 c-540 -45 -1017 -377 -1260 -876 -64 -132 -117 -307 -130
-432 -4 -30 -8 -61 -11 -69 -6 -19 -5 -232 1 -300 14 -146 71 -348 138 -491
104 -222 300 -457 484 -582 65 -44 82 -46 111 -15 26 28 27 54 7 180 -7 50
-17 112 -20 137 -4 25 -8 59 -11 75 -2 17 -6 44 -8 60 -5 40 -36 243 -41 276
-3 14 -7 43 -10 65 -6 48 -17 123 -21 146 -1 9 -6 38 -10 65 -3 26 -8 56 -10
67 -2 10 -6 44 -10 75 -3 31 -8 65 -10 76 -13 62 -15 116 -5 147 17 50 64 94
115 107 42 10 57 7 223 -45 98 -30 221 -68 273 -84 53 -16 138 -43 190 -59 52
-17 110 -31 129 -31 31 0 140 30 281 76 81 27 454 141 481 148 54 12 137 -34
165 -92 13 -28 15 -51 9 -115 -3 -45 -8 -84 -10 -87 -2 -3 -6 -30 -10 -60 -3
-30 -11 -84 -16 -120 -6 -36 -12 -83 -15 -105 -3 -22 -9 -62 -14 -90 -5 -27
-12 -75 -16 -105 -3 -30 -8 -64 -10 -75 -2 -11 -6 -38 -9 -60 -3 -22 -7 -51
-10 -65 -2 -14 -7 -45 -10 -70 -3 -25 -7 -56 -9 -70 -3 -14 -7 -41 -10 -60 -3
-19 -12 -82 -20 -139 -21 -135 -20 -137 10 -167 33 -34 58 -27 138 34 304 231
522 594 580 965 3 20 9 54 12 75 9 50 8 285 0 346 -33 237 -103 437 -216 621
-297 485 -853 769 -1415 723z"/>
<path d="M4205 2390 c-220 -64 -380 -212 -450 -417 -128 -371 84 -752 475
-854 45 -12 203 -16 250 -6 147 30 307 120 373 209 31 42 34 118 6 168 -56 99
-172 112 -266 30 -134 -118 -334 -113 -455 11 -197 203 -53 551 227 551 80 0
148 -25 216 -78 64 -49 96 -64 140 -64 42 0 103 34 130 71 31 44 36 123 11
169 -42 78 -211 184 -342 214 -87 20 -239 18 -315 -4z"/>
</g>
</svg>
