<?xml version="1.0" encoding="utf-8"?>
<!-- Generator: Adobe Illustrator 25.0.1, SVG Export Plug-In . SVG Version: 6.00 Build 0)  -->
<svg version="1.1" id="Layer_1" xmlns="http://www.w3.org/2000/svg" xmlns:xlink="http://www.w3.org/1999/xlink" x="0px" y="0px"
	 viewBox="0 0 204 204" style="enable-background:new 0 0 204 204;" xml:space="preserve">
<style type="text/css">
	.st0{fill:#FFFFFF;}
	.st1{fill:url(#SVGID_1_);}
	.st2{fill:url(#SVGID_2_);}
	.st3{fill:url(#SVGID_3_);}
</style>
<g id="logo.white.icon">
	<path class="st0" d="M162,167.4c0.9,0,1.7,0.3,2.3,0.9l0,0c0.6,0.6,1.7,0.6,2.3,0s0.6-1.7,0-2.3c-2.5-2.5-6.6-2.6-9.2,0
		c-1.3,1.3-2,3.1-1.9,4.9c0.2,3.3,2.8,6,6.2,6.2c1.8,0.1,3.6-0.6,4.9-1.9l0,0c0.6-0.6,0.6-1.7,0-2.3c-0.6-0.6-1.7-0.6-2.3,0
		c-1.3,1.3-3.3,1.3-4.6,0c-1.3-1.3-1.3-3.3,0-4.6C160.3,167.7,161.1,167.4,162,167.4L162,167.4z"/>
	<path class="st0" d="M161.8,146.8c-8.3,0.2-14.9,7-14.9,15.3c0.1,4.9,2.5,9.5,6.6,12.3c0.3,0.2,0.8,0.1,1-0.2
		c0.1-0.1,0.1-0.3,0.1-0.4l-1.8-12.3c-0.1-0.9,0.5-1.7,1.4-1.8c0.3,0,0.6,0,0.8,0.1l6.7,2.1c0.3,0.1,0.7,0.1,1,0l6.7-2.1
		c0.8-0.4,1.8,0,2.1,0.9c0.1,0.3,0.2,0.6,0.1,0.9l-1.8,12.3c0,0.4,0.3,0.7,0.6,0.7c0.1,0,0.3,0,0.4-0.1c6.9-4.7,8.6-14.2,3.9-21.1
		C171.6,149.2,166.8,146.7,161.8,146.8z"/>
	<path class="st0" d="M179.3,149c-7.1-9.6-20.7-11.6-30.3-4.4c-9.6,7.1-11.6,20.7-4.4,30.3c7.1,9.6,20.7,11.6,30.3,4.4
		c5.5-4.1,8.7-10.5,8.7-17.3C183.6,157.3,182.1,152.8,179.3,149z M174.2,174.2c-6.8,6.8-17.7,6.8-24.5,0s-6.8-17.7,0-24.5
		s17.7-6.8,24.5,0c3.3,3.2,5.1,7.7,5.1,12.3C179.3,166.6,177.5,171,174.2,174.2z"/>
	<path class="st0" d="M143.6,143.6c-10.2,10.1-10.2,26.6,0,36.7c10.1,10.2,26.6,10.2,36.7,0c10.2-10.1,10.2-26.6,0-36.7c0,0,0,0,0,0
		C170.2,133.5,153.8,133.5,143.6,143.6z M178.8,178.8c-9.3,9.3-24.4,9.3-33.7,0s-9.3-24.4,0-33.7c9.3-9.3,24.4-9.3,33.7,0
		c0,0,0,0,0,0C188.1,154.4,188.1,169.5,178.8,178.8C178.8,178.8,178.8,178.8,178.8,178.8z"/>
</g>
<g id="logo.white.pressed">
	<path class="st0" d="M102.5,176c0.9,0,1.7,0.3,2.3,0.9l0,0c0.6,0.6,1.7,0.6,2.3,0c0.6-0.6,0.6-1.7,0-2.3c-2.5-2.5-6.6-2.6-9.2,0
		c-1.3,1.3-2,3.1-1.9,4.9c0.2,3.6,3.2,6.4,6.8,6.2c1.6-0.1,3.2-0.8,4.3-1.9l0,0c0.6-0.6,0.6-1.7,0-2.3c-0.6-0.6-1.7-0.6-2.3,0
		c-1.3,1.3-3.3,1.3-4.6,0c-1.3-1.3-1.3-3.3,0-4.6C100.8,176.3,101.6,175.9,102.5,176L102.5,176z"/>
	<path class="st0" d="M102.3,155.4c-8.3,0.2-14.9,7-14.9,15.3c0.1,4.9,2.5,9.5,6.6,12.3c0.3,0.2,0.8,0.1,1-0.2
		c0.1-0.1,0.1-0.3,0.1-0.4L93.1,170c-0.1-0.9,0.5-1.7,1.4-1.8c0.3,0,0.6,0,0.8,0.1l6.7,2.1c0.3,0.1,0.7,0.1,1,0l6.7-2.1
		c0.8-0.4,1.8,0,2.1,0.9c0.1,0.3,0.2,0.6,0.1,0.9l-1.8,12.3c0,0.4,0.3,0.7,0.6,0.7c0.1,0,0.3,0,0.4-0.1c6.9-4.7,8.6-14.2,3.9-21.1
		C112.1,157.8,107.3,155.3,102.3,155.4z"/>
	<path class="st0" d="M119.8,157.6c-7.1-9.6-20.7-11.6-30.3-4.4s-11.6,20.7-4.4,30.3c7.1,9.6,20.7,11.6,30.3,4.4
		c5.5-4.1,8.7-10.5,8.7-17.3C124.1,165.9,122.6,161.3,119.8,157.6z M114.7,182.8c-6.8,6.8-17.7,6.8-24.5,0c-6.8-6.8-6.8-17.7,0-24.5
		s17.7-6.8,24.5,0c3.3,3.3,5.1,7.7,5.1,12.3C119.8,175.1,118,179.5,114.7,182.8z"/>
	<path class="st0" d="M120.9,152.1l-9-9c-10.4-9.9-26.9-9.4-36.7,1c-9.5,10-9.5,25.7,0,35.7l9,9c10.4,9.9,26.9,9.4,36.7-1
		C130.4,177.9,130.4,162.2,120.9,152.1z M76.6,178.3c-9.1-9.5-8.9-24.5,0.6-33.7c9.2-8.9,23.9-8.9,33.1,0l0,0l1.6,1.6
		c-13.4-5.2-28.4,1.4-33.6,14.8c-2.4,6.1-2.4,12.9,0,19L76.6,178.3z M119.3,187.4c-9.3,9.3-24.4,9.3-33.7,0
		c-9.3-9.3-9.3-24.4,0-33.7c9.3-9.3,24.4-9.3,33.7,0C128.6,163,128.7,178,119.3,187.4C119.4,187.3,119.4,187.4,119.3,187.4
		L119.3,187.4z"/>
</g>
<g id="logo.white.full">
	<path class="st0" d="M42.7,184.1c0.9,0,1.7,0.3,2.3,1l0,0c0.6,0.6,1.7,0.6,2.3,0c0.6-0.6,0.6-1.7,0-2.3c-2.5-2.5-6.7-2.5-9.2,0
		c-2.5,2.5-2.5,6.7,0,9.2c2.5,2.5,6.7,2.5,9.2,0c0,0,0,0,0,0l0,0c0.6-0.6,0.6-1.7,0-2.3s-1.7-0.6-2.3,0l0,0
		c-0.6,0.6-1.3,0.9-2.1,0.9c-1.8,0.1-3.3-1.3-3.3-3.1S40.9,184.1,42.7,184.1L42.7,184.1L42.7,184.1z"/>
	<path class="st0" d="M42.4,163.5c-8.3,0.2-14.9,7-14.9,15.3c0,4.9,2.5,9.5,6.6,12.3c0.3,0.2,0.8,0.1,1-0.2c0.1-0.1,0.1-0.3,0.1-0.4
		l-1.8-12.3c-0.1-0.9,0.5-1.7,1.4-1.8c0.3,0,0.6,0,0.8,0.1l6.7,2.1c0.3,0.1,0.7,0.1,1,0l6.7-2.1c0.8-0.3,1.8,0,2.1,0.9
		c0.1,0.3,0.2,0.6,0.1,0.9l-1.8,12.3c0,0.4,0.3,0.7,0.6,0.7c0.1,0,0.3,0,0.4-0.1c6.9-4.7,8.6-14.2,3.9-21.1
		C52.3,165.9,47.5,163.4,42.4,163.5z"/>
	<path class="st0" d="M60,165.7c-7.1-9.6-20.7-11.6-30.3-4.4c-9.6,7.1-11.6,20.7-4.4,30.3c7.1,9.6,20.7,11.6,30.3,4.4
		c5.5-4.1,8.7-10.5,8.7-17.3C64.3,174,62.8,169.4,60,165.7z M54.9,190.9c-6.8,6.8-17.7,6.8-24.5,0s-6.8-17.7,0-24.5
		c6.8-6.8,17.7-6.8,24.5,0c3.3,3.3,5.1,7.7,5.1,12.3C60,183.2,58.2,187.7,54.9,190.9z"/>
	<path class="st0" d="M61,160.3L61,160.3L43.7,143c-10.5-9.8-26.9-9.2-36.7,1.3c-9.3,10-9.3,25.5,0,35.4L24.3,197l0,0l0,0
		c10.5,9.8,26.9,9.2,36.7-1.3C70.3,185.7,70.3,170.3,61,160.3z M8.5,178.2c-9.3-9.3-9.3-24.4,0-33.7s24.4-9.3,33.7,0l0,0l10,10
		c-13.4-5.2-28.4,1.3-33.7,14.7c-2.4,6.1-2.4,12.9,0,19L8.5,178.2z M59.5,195.5c-9.3,9.3-24.4,9.3-33.7,0c-9.3-9.3-9.3-24.4,0-33.7
		c9.3-9.3,24.4-9.3,33.7,0C68.8,171.1,68.8,186.2,59.5,195.5L59.5,195.5z"/>
</g>
<g id="logo.colour.icon">
	
		<linearGradient id="SVGID_1_" gradientUnits="userSpaceOnUse" x1="146.6904" y1="916.7329" x2="177.2957" y2="947.3383" gradientTransform="matrix(1 0 0 -1 0 1026)">
		<stop  offset="0" style="stop-color:#66CC99"/>
		<stop  offset="1" style="stop-color:#33CCFF"/>
	</linearGradient>
	<circle class="st1" cx="162" cy="94" r="21.6"/>
	<path class="st0" d="M174.2,81.7c-6.8-6.8-17.7-6.8-24.5,0s-6.8,17.7,0,24.5c6.8,6.8,17.7,6.8,24.5,0c3.3-3.2,5.1-7.7,5.1-12.3
		C179.3,89.4,177.5,85,174.2,81.7z M162.2,105.9c0.8-0.1,1.5-0.4,2.1-0.9c0.6-0.6,1.7-0.6,2.3,0c0.6,0.6,0.6,1.7,0,2.3l0,0
		c-2.5,2.5-6.6,2.5-9.2,0c-2.5-2.5-2.5-6.6,0-9.2c2.5-2.5,6.6-2.5,9.2,0c0,0,0,0,0,0c0.6,0.6,0.6,1.7,0,2.3c-0.6,0.6-1.7,0.6-2.3,0
		l0,0l0,0c-1.3-1.3-3.3-1.3-4.6,0s-1.3,3.3,0,4.6C160.3,105.6,161.3,105.9,162.2,105.9L162.2,105.9z M170.6,106.4
		c-0.3,0.2-0.8,0.1-1-0.2c-0.1-0.1-0.1-0.3-0.1-0.5l1.8-12.3c0.1-0.9-0.5-1.7-1.4-1.8c-0.3,0-0.6,0-0.8,0.1l-6.7,2.1
		c-0.3,0.1-0.7,0.1-1,0l-6.7-2.1c-0.8-0.3-1.8,0-2.1,0.9c-0.1,0.3-0.2,0.6-0.1,0.9l1.8,12.3c0.1,0.4-0.2,0.7-0.6,0.8
		c-0.2,0-0.3,0-0.5-0.1c-4.1-2.8-6.5-7.4-6.6-12.3c0-8.3,6.6-15.1,14.9-15.3c8.4-0.1,15.2,6.6,15.4,14.9
		C177.2,98.9,174.7,103.6,170.6,106.4L170.6,106.4z"/>
	<path class="st0" d="M145.1,77.1c-9.3,9.3-9.3,24.4,0,33.7s24.4,9.3,33.7,0c9.3-9.3,9.3-24.4,0-33.7c0,0,0,0,0,0
		C169.5,67.8,154.5,67.8,145.1,77.1C145.2,77.1,145.2,77.1,145.1,77.1z M162,115.6c-12,0-21.6-9.7-21.6-21.6S150,72.3,162,72.3
		S183.6,82,183.6,94S173.9,115.6,162,115.6C162,115.6,162,115.6,162,115.6z"/>
	<path d="M143.6,75.6c-10.2,10.1-10.2,26.6,0,36.7c10.1,10.2,26.6,10.2,36.7,0c10.2-10.1,10.2-26.6,0-36.7c0,0,0,0,0,0
		C170.2,65.5,153.8,65.5,143.6,75.6z M178.8,110.8c-9.3,9.3-24.4,9.3-33.7,0s-9.3-24.4,0-33.7s24.4-9.3,33.7,0c0,0,0,0,0,0
		C188.1,86.4,188.1,101.5,178.8,110.8C178.8,110.8,178.8,110.8,178.8,110.8z"/>
</g>
<g id="logo.colour.pressed">
	
		<linearGradient id="SVGID_2_" gradientUnits="userSpaceOnUse" x1="87.2002" y1="908.1529" x2="117.809" y2="938.7548" gradientTransform="matrix(1 0 0 -1 0 1026)">
		<stop  offset="0" style="stop-color:#66CC99"/>
		<stop  offset="1" style="stop-color:#33CCFF"/>
	</linearGradient>
	<circle class="st2" cx="102.5" cy="102.5" r="21.6"/>
	<path class="st0" d="M114.7,90.3c-6.8-6.8-17.7-6.8-24.5,0s-6.8,17.7,0,24.5s17.7,6.8,24.5,0c3.3-3.2,5.1-7.7,5.1-12.3
		C119.8,97.9,118,93.5,114.7,90.3z M102.7,114.4c0.8-0.1,1.5-0.4,2.1-0.9c0.6-0.6,1.7-0.6,2.3,0s0.6,1.7,0,2.3l0,0
		c-2.5,2.5-6.6,2.5-9.2,0c-2.5-2.5-2.5-6.6,0-9.2c2.5-2.5,6.6-2.5,9.2,0c0,0,0,0,0,0c0.6,0.6,0.6,1.7,0,2.3c-0.6,0.6-1.7,0.6-2.3,0
		l0,0l0,0c-1.3-1.3-3.3-1.3-4.6,0c-1.3,1.3-1.3,3.3,0,4.6C100.8,114.2,101.8,114.5,102.7,114.4L102.7,114.4z M111.1,115
		c-0.3,0.2-0.8,0.1-1-0.2c-0.1-0.1-0.1-0.3-0.1-0.4l1.8-12.3c0.1-0.9-0.5-1.7-1.4-1.8c-0.3,0-0.6,0-0.8,0.1l-6.7,2.1
		c-0.3,0.1-0.7,0.1-1,0l-6.7-2.1c-0.8-0.3-1.8,0-2.1,0.9c-0.1,0.3-0.2,0.6-0.1,0.9l1.8,12.3c0,0.4-0.3,0.7-0.6,0.7
		c-0.1,0-0.3,0-0.4-0.1c-4.1-2.8-6.5-7.4-6.5-12.3c0-8.3,6.6-15.1,14.9-15.3c8.4-0.1,15.2,6.6,15.4,14.9
		C117.7,107.4,115.3,112.1,111.1,115z"/>
	<path class="st0" d="M85.7,85.7c-9.3,9.3-9.3,24.4,0,33.7c9.3,9.3,24.4,9.3,33.7,0s9.3-24.4,0-33.7c0,0,0,0,0,0
		C110,76.4,95,76.4,85.7,85.7C85.7,85.7,85.7,85.7,85.7,85.7z M102.5,124.2c-12,0-21.7-9.7-21.7-21.6c0-12,9.7-21.7,21.6-21.7
		c12,0,21.7,9.7,21.7,21.6c0,0,0,0,0,0C124.1,114.5,114.4,124.2,102.5,124.2L102.5,124.2z"/>
	<path class="st0" d="M84.1,84.1c7.3-7.3,18.2-9.6,27.8-5.8l-1.6-1.6l0,0c-9.5-9.1-24.5-8.9-33.7,0.6c-8.9,9.2-8.9,23.9,0,33.1
		l1.7,1.7C74.5,102.4,76.8,91.5,84.1,84.1z"/>
	<path d="M120.9,84.1l-9-9c-10.4-9.9-26.9-9.4-36.7,1c-9.5,10-9.5,25.7,0,35.7l9,9c10.4,9.9,26.9,9.4,36.7-1
		C130.4,109.9,130.4,94.2,120.9,84.1z M76.6,110.3c-9.1-9.5-8.9-24.5,0.6-33.7c9.2-8.9,23.9-8.9,33.1,0l0,0l1.6,1.6
		c-13.4-5.2-28.4,1.4-33.6,14.8c-2.4,6.1-2.4,12.9,0,19L76.6,110.3z M119.3,119.4c-9.3,9.3-24.4,9.3-33.7,0s-9.3-24.4,0-33.7
		c9.3-9.3,24.4-9.3,33.7,0C128.6,95,128.7,110,119.3,119.4C119.4,119.3,119.4,119.4,119.3,119.4L119.3,119.4z"/>
</g>
<g id="logo.colour.full">
	
		<linearGradient id="SVGID_3_" gradientUnits="userSpaceOnUse" x1="27.3577" y1="900.037" x2="57.9664" y2="930.6389" gradientTransform="matrix(1 0 0 -1 0 1026)">
		<stop  offset="0" style="stop-color:#66CC99"/>
		<stop  offset="1" style="stop-color:#33CCFF"/>
	</linearGradient>
	<circle class="st3" cx="42.7" cy="110.7" r="21.6"/>
	<path class="st0" d="M54.9,98.4c-6.8-6.8-17.7-6.8-24.5,0s-6.8,17.7,0,24.5s17.7,6.8,24.5,0c3.3-3.2,5.1-7.7,5.1-12.3
		C60,106.1,58.2,101.7,54.9,98.4z M42.9,122.5c0.8,0,1.5-0.4,2.1-0.9c0.6-0.6,1.7-0.6,2.3,0s0.6,1.7,0,2.3l0,0l0,0
		c-2.5,2.5-6.6,2.5-9.2,0c-2.5-2.5-2.5-6.6,0-9.2c2.5-2.5,6.6-2.5,9.2,0c0.6,0.6,0.6,1.7,0,2.3c-0.6,0.6-1.7,0.6-2.3,0l0,0
		c-1.3-1.3-3.3-1.2-4.6,0c-1.3,1.3-1.2,3.3,0,4.6C41,122.3,41.9,122.6,42.9,122.5L42.9,122.5z M51.2,123.1c-0.3,0.2-0.8,0.1-1-0.2
		c-0.1-0.1-0.1-0.3-0.1-0.4l1.8-12.3c0.1-0.9-0.5-1.7-1.4-1.8c-0.3,0-0.6,0-0.8,0.1l-6.7,2.1c-0.3,0.1-0.7,0.1-1,0l-6.7-2.1
		c-0.8-0.4-1.8,0-2.1,0.9c-0.1,0.3-0.2,0.6-0.1,0.9l1.8,12.3c0,0.4-0.3,0.7-0.6,0.7c-0.1,0-0.3,0-0.4-0.1c-4.1-2.8-6.5-7.4-6.6-12.3
		c0-8.3,6.6-15.1,14.9-15.3c8.4-0.1,15.2,6.6,15.4,14.9C57.9,115.5,55.4,120.3,51.2,123.1z"/>
	<path class="st0" d="M25.8,93.8c-9.3,9.3-9.3,24.4,0,33.7c9.3,9.3,24.4,9.3,33.7,0s9.3-24.4,0-33.7c0,0,0,0,0,0
		C50.2,84.5,35.1,84.5,25.8,93.8z M42.7,132.3c-12,0-21.6-9.7-21.6-21.6S30.7,89,42.7,89c12,0,21.6,9.7,21.6,21.6c0,0,0,0,0,0
		C64.3,122.6,54.6,132.3,42.7,132.3z"/>
	<path class="st0" d="M24.3,92.3c7.3-7.3,18.2-9.6,27.9-5.8l-10-10l0,0c-9.3-9.3-24.4-9.3-33.7,0s-9.3,24.4,0,33.7l10,10
		C14.7,110.5,17,99.6,24.3,92.3z"/>
	<path d="M61,92.3L61,92.3L43.7,75C33.2,65.2,16.8,65.8,7,76.3c-9.3,10-9.3,25.5,0,35.4L24.3,129l0,0l0,0
		c10.5,9.8,26.9,9.2,36.7-1.3C70.3,117.7,70.3,102.3,61,92.3z M8.5,110.2c-9.3-9.3-9.3-24.4,0-33.7s24.4-9.3,33.7,0l0,0l10,10
		c-13.4-5.2-28.4,1.3-33.7,14.7c-2.4,6.1-2.4,12.9,0,19L8.5,110.2z M59.5,127.5c-9.3,9.3-24.4,9.3-33.7,0s-9.3-24.4,0-33.7
		c9.3-9.3,24.4-9.3,33.7,0C68.8,103.1,68.8,118.2,59.5,127.5L59.5,127.5z"/>
</g>
<g id="logo.black.icon">
	<path d="M162,31.4c0.9,0,1.7,0.3,2.3,0.9l0,0c0.6,0.6,1.7,0.6,2.3,0c0.6-0.6,0.6-1.7,0-2.3c-2.5-2.5-6.6-2.6-9.2,0
		c-1.3,1.3-2,3.1-1.9,4.9c0.2,3.3,2.8,6,6.2,6.2c1.8,0.1,3.6-0.6,4.9-1.9l0,0c0.6-0.6,0.6-1.7,0-2.3s-1.7-0.6-2.3,0
		c-1.3,1.3-3.3,1.3-4.6,0c-1.3-1.3-1.3-3.3,0-4.6C160.3,31.7,161.1,31.4,162,31.4L162,31.4z"/>
	<path d="M161.8,10.8c-8.3,0.2-14.9,7-14.9,15.3c0.1,4.9,2.5,9.5,6.6,12.3c0.3,0.2,0.8,0.1,1-0.2c0.1-0.1,0.1-0.3,0.1-0.4l-1.8-12.3
		c-0.1-0.9,0.5-1.7,1.4-1.8c0.3,0,0.6,0,0.8,0.1l6.7,2.1c0.3,0.1,0.7,0.1,1,0l6.7-2.1c0.8-0.4,1.8,0,2.1,0.9
		c0.1,0.3,0.2,0.6,0.1,0.9l-1.8,12.3c0,0.4,0.3,0.7,0.6,0.7c0.1,0,0.3,0,0.4-0.1c6.9-4.7,8.6-14.2,3.9-21.1
		C171.6,13.2,166.8,10.7,161.8,10.8z"/>
	<path d="M179.3,13c-7.1-9.6-20.7-11.6-30.3-4.4c-9.6,7.1-11.6,20.7-4.4,30.3s20.7,11.6,30.3,4.4c5.5-4.1,8.7-10.5,8.7-17.3
		C183.6,21.3,182.1,16.8,179.3,13z M174.2,38.2c-6.8,6.8-17.7,6.8-24.5,0c-6.8-6.8-6.8-17.7,0-24.5s17.7-6.8,24.5,0
		c3.3,3.2,5.1,7.7,5.1,12.3C179.3,30.6,177.5,35,174.2,38.2z"/>
	<path d="M143.6,7.6c-10.2,10.1-10.2,26.6,0,36.7s26.6,10.2,36.7,0c10.2-10.1,10.2-26.6,0-36.7c0,0,0,0,0,0
		C170.2-2.5,153.8-2.5,143.6,7.6z M178.8,42.8c-9.3,9.3-24.4,9.3-33.7,0s-9.3-24.4,0-33.7c9.3-9.3,24.4-9.3,33.7,0c0,0,0,0,0,0
		C188.1,18.4,188.1,33.5,178.8,42.8C178.8,42.8,178.8,42.8,178.8,42.8z"/>
</g>
<g id="logo.black.pressed">
	<path d="M102.5,40c0.9,0,1.7,0.3,2.3,0.9l0,0c0.6,0.6,1.7,0.6,2.3,0s0.6-1.7,0-2.3c-2.5-2.5-6.6-2.6-9.2,0c-1.3,1.3-2,3.1-1.9,4.9
		c0.2,3.6,3.2,6.4,6.8,6.2c1.6-0.1,3.2-0.8,4.3-1.9l0,0c0.6-0.6,0.6-1.7,0-2.3c-0.6-0.6-1.7-0.6-2.3,0c-1.3,1.3-3.3,1.3-4.6,0
		c-1.3-1.3-1.3-3.3,0-4.6C100.8,40.3,101.6,39.9,102.5,40L102.5,40z"/>
	<path d="M102.3,19.4c-8.3,0.2-14.9,7-14.9,15.3c0.1,4.9,2.5,9.5,6.6,12.3c0.3,0.2,0.8,0.1,1-0.2c0.1-0.1,0.1-0.3,0.1-0.4L93.1,34
		c-0.1-0.9,0.5-1.7,1.4-1.8c0.3,0,0.6,0,0.8,0.1l6.7,2.1c0.3,0.1,0.7,0.1,1,0l6.7-2.1c0.8-0.4,1.8,0,2.1,0.9
		c0.1,0.3,0.2,0.6,0.1,0.9L110,46.4c0,0.4,0.3,0.7,0.6,0.7c0.1,0,0.3,0,0.4-0.1c6.9-4.7,8.6-14.2,3.9-21.1
		C112.1,21.8,107.3,19.3,102.3,19.4z"/>
	<path d="M119.8,21.6C112.7,12,99.1,10,89.6,17.2S78,37.9,85.2,47.5c7.1,9.6,20.7,11.6,30.3,4.4c5.5-4.1,8.7-10.5,8.7-17.3
		C124.1,29.9,122.6,25.3,119.8,21.6z M114.7,46.8c-6.8,6.8-17.7,6.8-24.5,0c-6.8-6.8-6.8-17.7,0-24.5s17.7-6.8,24.5,0
		c3.3,3.3,5.1,7.7,5.1,12.3C119.8,39.1,118,43.5,114.7,46.8z"/>
	<path d="M120.9,16.1l-9-9c-10.4-9.9-26.9-9.4-36.7,1c-9.5,10-9.5,25.7,0,35.7l9,9c10.4,9.9,26.9,9.4,36.7-1
		C130.4,41.9,130.4,26.2,120.9,16.1z M76.6,42.3c-9.1-9.5-8.9-24.5,0.6-33.7c9.2-8.9,23.9-8.9,33.1,0l0,0l1.6,1.6
		c-13.4-5.2-28.4,1.4-33.6,14.8c-2.4,6.1-2.4,12.9,0,19L76.6,42.3z M119.3,51.4c-9.3,9.3-24.4,9.3-33.7,0s-9.3-24.4,0-33.7
		c9.3-9.3,24.4-9.3,33.7,0C128.6,27,128.7,42,119.3,51.4C119.4,51.3,119.4,51.4,119.3,51.4L119.3,51.4z"/>
</g>
<g id="logo.black.full">
	<path d="M42.7,48.1c0.9,0,1.7,0.3,2.3,1l0,0c0.6,0.6,1.7,0.6,2.3,0c0.6-0.6,0.6-1.7,0-2.3c-2.5-2.5-6.7-2.5-9.2,0
		c-2.5,2.5-2.5,6.7,0,9.2s6.7,2.5,9.2,0c0,0,0,0,0,0l0,0c0.6-0.6,0.6-1.7,0-2.3c-0.6-0.6-1.7-0.6-2.3,0l0,0
		c-0.6,0.6-1.3,0.9-2.1,0.9c-1.8,0.1-3.3-1.3-3.3-3.1S40.9,48.1,42.7,48.1L42.7,48.1L42.7,48.1z"/>
	<path d="M42.4,27.5c-8.3,0.2-14.9,7-14.9,15.3c0,4.9,2.5,9.5,6.6,12.3c0.3,0.2,0.8,0.1,1-0.2c0.1-0.1,0.1-0.3,0.1-0.4l-1.8-12.3
		c-0.1-0.9,0.5-1.7,1.4-1.8c0.3,0,0.6,0,0.8,0.1l6.7,2.1c0.3,0.1,0.7,0.1,1,0l6.7-2.1c0.8-0.3,1.8,0,2.1,0.9
		c0.1,0.3,0.2,0.6,0.1,0.9l-1.8,12.3c0,0.4,0.3,0.7,0.6,0.7c0.1,0,0.3,0,0.4-0.1c6.9-4.7,8.6-14.2,3.9-21.1
		C52.3,29.9,47.5,27.4,42.4,27.5z"/>
	<path d="M60,29.7c-7.1-9.6-20.7-11.6-30.3-4.4S18.2,46,25.3,55.6S46,67.1,55.6,60c5.5-4.1,8.7-10.5,8.7-17.3
		C64.3,38,62.8,33.4,60,29.7z M54.9,54.9c-6.8,6.8-17.7,6.8-24.5,0c-6.8-6.8-6.8-17.7,0-24.5s17.7-6.8,24.5,0
		c3.3,3.3,5.1,7.7,5.1,12.3C60,47.2,58.2,51.7,54.9,54.9z"/>
	<path d="M61,24.3L61,24.3L43.7,7C33.2-2.8,16.8-2.2,7,8.3c-9.3,10-9.3,25.5,0,35.4L24.3,61l0,0l0,0c10.5,9.8,26.9,9.2,36.7-1.3
		C70.3,49.7,70.3,34.3,61,24.3z M8.5,42.2c-9.3-9.3-9.3-24.4,0-33.7s24.4-9.3,33.7,0l0,0l10,10c-13.4-5.2-28.4,1.3-33.7,14.7
		c-2.4,6.1-2.4,12.9,0,19L8.5,42.2z M59.5,59.5c-9.3,9.3-24.4,9.3-33.7,0s-9.3-24.4,0-33.7c9.3-9.3,24.4-9.3,33.7,0
		C68.8,35.1,68.8,50.2,59.5,59.5L59.5,59.5z"/>
</g>
</svg>
