<svg xmlns="http://www.w3.org/2000/svg" xmlns:xlink="http://www.w3.org/1999/xlink" viewBox="0 0 100 100"><defs><style>.a{fill:url(#a);}.b{fill:#fff;}</style><linearGradient id="a" x1="40.42" y1="84.58" x2="84.59" y2="40.42" gradientTransform="translate(0 0)" gradientUnits="userSpaceOnUse"><stop offset="0" stop-color="#6c9"/><stop offset="1" stop-color="#3cf"/></linearGradient></defs><circle class="a" cx="62.5" cy="62.5" r="31.23"/><path class="b" d="M80.16,44.82a25,25,0,1,0,7.32,17.67A24.82,24.82,0,0,0,80.16,44.82ZM62.79,79.65a4.62,4.62,0,0,0,3-1.37,2.34,2.34,0,0,1,3.31,3.32h0a9.36,9.36,0,1,1,0-13.25,2.34,2.34,0,1,1-3.32,3.31h0a4.68,4.68,0,1,0-3,8Zm12.09.85a1,1,0,0,1-1.51-.94L76,61.78a2.34,2.34,0,0,0-3.16-2.52l-9.61,3a2.39,2.39,0,0,1-1.4,0l-9.6-3A2.34,2.34,0,0,0,49,61.78l2.59,17.78a1,1,0,0,1-1.51.94,21.84,21.84,0,0,1-9.47-17.78A22.12,22.12,0,0,1,62.18,40.63,21.86,21.86,0,0,1,74.88,80.5Z"/><path class="b" d="M38.19,38.18a34.37,34.37,0,1,0,48.6,0A34.38,34.38,0,0,0,38.19,38.18Zm24.3,55.53A31.23,31.23,0,1,1,93.72,62.49,31.23,31.23,0,0,1,62.49,93.71Z"/><path class="b" d="M36,36a37.5,37.5,0,0,1,40.21-8.39L61.8,13.19h0A34.37,34.37,0,0,0,13.19,61.8l14.4,14.39A37.49,37.49,0,0,1,36,36Z"/><path d="M89,36h0L64,11A37.5,37.5,0,0,0,11,64L36,89h0v0A37.5,37.5,0,0,0,89,36ZM13.19,61.8A34.37,34.37,0,0,1,61.8,13.19h0L76.19,27.58a37.5,37.5,0,0,0-48.6,48.61Zm73.6,25a34.37,34.37,0,1,1,0-48.61A34.37,34.37,0,0,1,86.79,86.79Z"/></svg>