<svg xmlns="http://www.w3.org/2000/svg" viewBox="0 0 100 100"><path d="M50.5,58.37a4.66,4.66,0,0,1,3.31,1.37h0a2.34,2.34,0,1,0,3.31-3.31,9.36,9.36,0,0,0-16,7.06,9.36,9.36,0,0,0,16,6.18h0a2.34,2.34,0,1,0-3.31-3.31,4.68,4.68,0,1,1-3.31-8Z"/><path d="M50.19,28.7A22.11,22.11,0,0,0,28.64,50.8a21.84,21.84,0,0,0,9.47,17.77,1,1,0,0,0,1.51-.94L37,49.85a2.34,2.34,0,0,1,3.16-2.52l9.61,3a2.39,2.39,0,0,0,1.4,0l9.6-3A2.34,2.34,0,0,1,64,49.85L61.38,67.63a1,1,0,0,0,1.51.94A21.86,21.86,0,0,0,50.19,28.7Z"/><path d="M75.53,31.88a31.23,31.23,0,1,0,6.2,18.68A31.18,31.18,0,0,0,75.53,31.88ZM68.16,68.22a25,25,0,1,1,7.32-17.66A24.79,24.79,0,0,1,68.16,68.22Z"/><path d="M77,24,64,11A37.49,37.49,0,0,0,11,64L24,77A37.49,37.49,0,0,0,77,24ZM13.17,61.83a34.37,34.37,0,0,1,48.6-48.6h0l2.33,2.34A37.49,37.49,0,0,0,15.63,64.29Zm61.63,13a34.37,34.37,0,1,1,0-48.61A34.35,34.35,0,0,1,74.8,74.86Z"/></svg>