<svg xmlns="http://www.w3.org/2000/svg" viewBox="0 0 100 100"><defs><style>.a{fill:#fff;}</style></defs><path class="a" d="M62.49,70.29a4.67,4.67,0,0,1,3.31,1.38h0a2.34,2.34,0,1,0,3.32-3.31,9.38,9.38,0,1,0,0,13.25h0a2.34,2.34,0,0,0-3.31-3.32,4.62,4.62,0,0,1-3,1.37,4.68,4.68,0,1,1-.3-9.36Z"/><path class="a" d="M62.18,40.63A22.12,22.12,0,0,0,40.63,62.72,21.84,21.84,0,0,0,50.1,80.5a1,1,0,0,0,1.51-.94L49,61.78a2.34,2.34,0,0,1,3.17-2.52l9.6,3a2.39,2.39,0,0,0,1.4,0l9.61-3A2.34,2.34,0,0,1,76,61.78L73.37,79.56a1,1,0,0,0,1.51.94,21.86,21.86,0,0,0-12.7-39.87Z"/><path class="a" d="M87.52,43.81a31.23,31.23,0,1,0,6.2,18.68A31.18,31.18,0,0,0,87.52,43.81ZM80.16,80.15a25,25,0,1,1,7.32-17.66A24.82,24.82,0,0,1,80.16,80.15Z"/><path class="a" d="M89,36h0L64,11A37.5,37.5,0,0,0,11,64L36,89h0v0A37.5,37.5,0,0,0,89,36ZM13.19,61.8A34.37,34.37,0,0,1,61.8,13.19h0L76.19,27.58a37.5,37.5,0,0,0-48.6,48.61Zm73.6,25a34.37,34.37,0,1,1,0-48.61A34.37,34.37,0,0,1,86.79,86.79Z"/></svg>