<svg xmlns="http://www.w3.org/2000/svg" xmlns:xlink="http://www.w3.org/1999/xlink" viewBox="0 0 75 75"><defs><style>.a{fill:url(#a);}.b{fill:#fff;}</style><linearGradient id="a" x1="15.43" y1="59.6" x2="59.6" y2="15.43" gradientTransform="translate(0 0)" gradientUnits="userSpaceOnUse"><stop offset="0" stop-color="#6c9"/><stop offset="1" stop-color="#3cf"/></linearGradient></defs><circle class="a" cx="37.51" cy="37.51" r="31.23"/><path class="b" d="M55.17,19.83A25,25,0,1,0,62.49,37.5,24.83,24.83,0,0,0,55.17,19.83ZM37.8,54.67a4.69,4.69,0,0,0,3-1.37,2.34,2.34,0,1,1,3.31,3.31h0a9.37,9.37,0,1,1,0-13.25,2.34,2.34,0,0,1-3.32,3.31h0a4.69,4.69,0,1,0-3,8Zm12.09.85a1,1,0,0,1-1.51-1L51,36.79a2.34,2.34,0,0,0-3.16-2.52l-9.61,3a2.39,2.39,0,0,1-1.4,0l-9.61-3A2.34,2.34,0,0,0,24,36.79l2.59,17.78a1,1,0,0,1-1.51,1,21.86,21.86,0,0,1-9.47-17.78,22.11,22.11,0,0,1,21.55-22.1,21.87,21.87,0,0,1,12.7,39.88Z"/><path class="b" d="M13.2,13.2a34.37,34.37,0,1,0,48.6,0A34.35,34.35,0,0,0,13.2,13.2ZM37.5,68.73A31.23,31.23,0,1,1,68.73,37.5,31.23,31.23,0,0,1,37.5,68.73Z"/><path d="M11,11a37.5,37.5,0,1,0,53,0A37.52,37.52,0,0,0,11,11ZM61.8,61.8a34.37,34.37,0,1,1,0-48.6A34.35,34.35,0,0,1,61.8,61.8Z"/></svg>