<svg xmlns="http://www.w3.org/2000/svg" viewBox="0 0 75 75"><path d="M37.5,45.31a4.66,4.66,0,0,1,3.31,1.37h0a2.34,2.34,0,1,0,3.31-3.31,9.36,9.36,0,0,0-16,7.06,9.4,9.4,0,0,0,8.92,8.92,9.29,9.29,0,0,0,7.06-2.74h0a2.34,2.34,0,1,0-3.31-3.31,4.68,4.68,0,1,1-3.31-8Z"/><path d="M37.19,15.64a22.12,22.12,0,0,0-21.55,22.1,21.84,21.84,0,0,0,9.47,17.77,1,1,0,0,0,1.51-.94L24,36.79a2.34,2.34,0,0,1,3.16-2.52l9.61,3a2.39,2.39,0,0,0,1.4,0l9.6-3A2.34,2.34,0,0,1,51,36.79L48.38,54.57a1,1,0,0,0,1.51.94,21.86,21.86,0,0,0-12.7-39.87Z"/><path d="M62.53,18.82a31.23,31.23,0,1,0,6.2,18.68A31.17,31.17,0,0,0,62.53,18.82ZM55.16,55.17A25,25,0,1,1,62.48,37.5,24.83,24.83,0,0,1,55.16,55.17Z"/><path d="M11,11a37.5,37.5,0,1,0,53,0A37.52,37.52,0,0,0,11,11ZM61.8,61.8a34.37,34.37,0,1,1,0-48.6A34.35,34.35,0,0,1,61.8,61.8Z"/></svg>