<svg xmlns="http://www.w3.org/2000/svg" xmlns:xlink="http://www.w3.org/1999/xlink" viewBox="0 0 100 100"><defs><style>.a{fill:url(#a);}.b{fill:#fff;}</style><linearGradient id="a" x1="28.43" y1="72.65" x2="72.6" y2="28.49" gradientTransform="translate(0 0)" gradientUnits="userSpaceOnUse"><stop offset="0" stop-color="#6c9"/><stop offset="1" stop-color="#3cf"/></linearGradient></defs><circle class="a" cx="50.51" cy="50.57" r="31.23"/><path class="b" d="M68.17,32.89a25,25,0,1,0,7.32,17.67A24.83,24.83,0,0,0,68.17,32.89ZM50.8,67.73a4.74,4.74,0,0,0,3-1.37,2.34,2.34,0,1,1,3.31,3.31h0a9.37,9.37,0,1,1,0-13.25,2.34,2.34,0,0,1-3.32,3.31h0a4.69,4.69,0,1,0-3,8Zm12.09.84a1,1,0,0,1-1.51-.94L64,49.85a2.34,2.34,0,0,0-3.16-2.52l-9.61,3a2.39,2.39,0,0,1-1.4,0l-9.61-3A2.34,2.34,0,0,0,37,49.85l2.59,17.78a1,1,0,0,1-1.51.94A21.84,21.84,0,0,1,28.64,50.8,22.11,22.11,0,0,1,50.19,28.7a21.86,21.86,0,0,1,12.7,39.87Z"/><path class="b" d="M26.2,26.25a34.37,34.37,0,1,0,48.6,0A34.36,34.36,0,0,0,26.2,26.25ZM50.5,81.79A31.24,31.24,0,1,1,81.73,50.56,31.23,31.23,0,0,1,50.5,81.79Z"/><path class="b" d="M24,24a37.5,37.5,0,0,1,40.13-8.42l-2.33-2.34h0a34.37,34.37,0,0,0-48.6,48.6l2.46,2.46A37.5,37.5,0,0,1,24,24Z"/><path d="M77,24,64,11A37.49,37.49,0,0,0,11,64L24,77A37.49,37.49,0,0,0,77,24ZM13.17,61.83a34.37,34.37,0,0,1,48.6-48.6h0l2.33,2.34A37.49,37.49,0,0,0,15.63,64.29Zm61.63,13a34.37,34.37,0,1,1,0-48.61A34.35,34.35,0,0,1,74.8,74.86Z"/></svg>